<svg xmlns="http://www.w3.org/2000/svg" viewBox="-23419 -18400 150 29.869">
  <defs>
    <style>
      .cls-1 {
        fill: #fff;
      }
    </style>
  </defs>
  <g id="Group_617" data-name="Group 617" transform="translate(-27088.529 3179.074)">
    <g id="Group_536" data-name="Group 536" transform="translate(3669.53 -21577.934)">
      <path id="Rectangle_741" class="cls-1" d="M28.993,39.5h3.6a1.481,1.481,0,0,1,1.493,1.493v4.392A1.481,1.481,0,0,1,32.6,46.879h-3.6A1.481,1.481,0,0,1,27.5,45.386V40.993A1.539,1.539,0,0,1,28.993,39.5Z" transform="translate(-27.5 -18.68)"/>
      <path id="Rectangle_742" class="cls-1" d="M52.093,15.8h3.6a1.539,1.539,0,0,1,1.493,1.493V42.33A1.43,1.43,0,0,1,55.7,43.824h-3.6A1.539,1.539,0,0,1,50.6,42.33V17.293A1.606,1.606,0,0,1,52.093,15.8Z" transform="translate(-30.307 -15.8)"/>
      <path id="Rectangle_743" class="cls-1" d="M40.593,28.3h3.6a1.668,1.668,0,0,1,1.493,1.757v13.7A1.609,1.609,0,0,1,44.2,45.518h-3.6A1.668,1.668,0,0,1,39.1,43.761v-13.7A1.608,1.608,0,0,1,40.593,28.3Z" transform="translate(-28.909 -17.319)"/>
      <path id="Path_900" data-name="Path 900" class="cls-1" d="M72.264,23.7c5.886,0,8.522,2.987,8.522,8.17V43.378c0,1.142-.351,1.493-1.406,1.493H76.3c-1.142,0-1.493-.351-1.493-1.493V32.134c0-2.021-1.142-2.987-3.338-2.987a8.54,8.54,0,0,0-2.723.351.307.307,0,0,0-.088.176V43.466c0,1.142-.351,1.493-1.493,1.493H64.093c-1.142,0-1.493-.351-1.493-1.493V27.478c0-1.318.264-1.757,1.581-2.284A20.164,20.164,0,0,1,72.264,23.7Z" transform="translate(-31.764 -16.76)"/>
    </g>
    <g id="Group_535" data-name="Group 535" transform="translate(3716.481 -21579.074)">
      <path id="Path_901" data-name="Path 901" class="cls-1" d="M116.075,17.481v2.635c0,1.23-.439,1.581-1.581,1.581h-6.15V42.343c0,1.23-.439,1.581-1.581,1.581H103.6c-1.23,0-1.581-.439-1.581-1.581V21.7H95.781c-1.23,0-1.581-.351-1.581-1.581V17.481c0-1.23.439-1.581,1.581-1.581h18.8C115.636,15.9,116.075,16.251,116.075,17.481Z" transform="translate(-94.2 -14.67)"/>
      <path id="Path_902" data-name="Path 902" class="cls-1" d="M126.5,23.7c6.237,0,9.488,3.163,9.488,8.346v5.1c0,5.183-3.163,8.258-9.488,8.258-6.15,0-9.4-3.163-9.4-8.258v-5.1C117.1,26.863,120.351,23.7,126.5,23.7Zm0,5.359c-2.284,0-3.426,1.054-3.426,2.987v5.183c0,1.933,1.142,2.987,3.426,2.987,2.372,0,3.514-1.054,3.514-2.987V32.046C130.014,30.025,128.872,29.059,126.5,29.059Z" transform="translate(-96.982 -15.618)"/>
      <path id="Path_903" data-name="Path 903" class="cls-1" d="M160.385,25.893V41.882c0,1.318-.264,1.757-1.581,2.284a20.133,20.133,0,0,1-8.082,1.406c-5.886,0-8.522-2.987-8.522-8.17V25.893c0-1.142.351-1.493,1.493-1.493h3.075c1.142,0,1.493.351,1.493,1.493V37.226c0,2.021,1.142,2.987,3.338,2.987a12.172,12.172,0,0,0,2.636-.264.406.406,0,0,0,.264-.439V25.893c0-1.142.351-1.493,1.493-1.493h3.075C160.034,24.4,160.385,24.751,160.385,25.893Z" transform="translate(-100.032 -15.703)"/>
      <path id="Path_904" data-name="Path 904" class="cls-1" d="M176.1,23.7c4.744,0,7.643,2.284,8.7,5.271.439,1.142.088,1.669-1.054,2.021l-2.548.791c-1.142.439-1.669.176-2.108-.966a3.263,3.263,0,0,0-3.25-2.021c-2.108,0-3.163,1.054-3.163,2.987v5.535c0,1.933,1.054,2.987,3.163,2.987a3.263,3.263,0,0,0,3.25-2.021c.439-1.142.879-1.318,2.108-.966l2.548.791c1.142.351,1.493.878,1.054,2.108-1.406,3.25-4.217,5.183-9.049,5.183-6.325,0-9.049-3.163-9.049-8.346V32.046C166.7,26.95,169.6,23.7,176.1,23.7Z" transform="translate(-103.008 -15.618)"/>
      <path id="Path_905" data-name="Path 905" class="cls-1" d="M196.762,15.993v6.94a31.867,31.867,0,0,1,3.69-.264c5.886,0,8.521,2.987,8.521,8.17V42.348c0,1.142-.351,1.493-1.406,1.493h-3.075c-1.142,0-1.493-.351-1.493-1.493V31.016c0-1.933-1.142-2.987-3.338-2.987a14.689,14.689,0,0,0-2.9.351V42.348c0,1.142-.351,1.493-1.493,1.493h-3.075c-1.142,0-1.493-.351-1.493-1.493V15.993c0-1.142.351-1.493,1.493-1.493h3.075C196.41,14.5,196.762,14.851,196.762,15.993Z" transform="translate(-105.924 -14.5)"/>
    </g>
  </g>
</svg>
