<svg xmlns="http://www.w3.org/2000/svg" xmlns:xlink="http://www.w3.org/1999/xlink" viewBox="-314.33 -21389.76 130.935 76.02">
  <defs>
    <style>
      .cls-1 {
        fill: url(#linear-gradient);
      }
    </style>
    <linearGradient id="linear-gradient" x1="0.5" x2="0.5" y2="1" gradientUnits="objectBoundingBox">
      <stop offset="0" stop-color="#d0ffae" stop-opacity="0.4"/>
      <stop offset="1" stop-color="#d0ffae" stop-opacity="0"/>
    </linearGradient>
  </defs>
  <path id="Path_5239" data-name="Path 5239" class="cls-1" d="M61.845-9.608A29.432,29.432,0,0,1,38.22,1.26Q23.73,1.26,14.7-9.555T5.67-36.75q0-16.275,9.135-27.142A29.432,29.432,0,0,1,38.43-74.76,29.229,29.229,0,0,1,61.9-63.945Q70.98-53.13,70.98-36.75,70.98-20.475,61.845-9.608ZM26.722-19.95q4.463,6.615,11.708,6.615t11.6-6.563Q54.39-26.46,54.39-36.75q0-10.08-4.515-16.747T38.22-60.165q-7.14,0-11.55,6.563T22.26-36.75Q22.26-26.565,26.722-19.95ZM108.675,1.26A38.47,38.47,0,0,1,81.165-9.765L90.93-21.42q8.82,7.98,17.535,7.98,5.775,0,9.03-2.73a9.453,9.453,0,0,0,3.255-7.665,8.634,8.634,0,0,0-3.57-7.3q-3.57-2.677-9.45-2.677a31.3,31.3,0,0,0-12.285,2.73l-9.345-6.2L88.2-73.5h45.15v14.175H102.06l-.84,12.7a39.82,39.82,0,0,1,9.66-1.26q11.445,0,18.585,5.88t7.14,17.85q0,11.655-7.613,18.532T108.675,1.26Z" transform="translate(-320 -21315)"/>
</svg>
