<?xml version="1.0" encoding="utf-8"?>
<!-- Generator: Adobe Illustrator 19.1.0, SVG Export Plug-In . SVG Version: 6.00 Build 0)  -->
<svg version="1.1" id="Layer_1" xmlns="http://www.w3.org/2000/svg" xmlns:xlink="http://www.w3.org/1999/xlink" x="0px" y="0px"
	 viewBox="-421 247 115.8 68" style="enable-background:new -421 247 115.8 68;" xml:space="preserve">
<style type="text/css">
	.st0{fill:#CECECE;}
	.st1{clip-path:url(#SVGID_2_);}
	.st2{fill:#FFFFFF;}
	.st3{fill:#FF0036;}
</style>
<path class="st0" d="M-362.9,313c-31.6,0-57.3,1.1-57.3,2h114.5C-305.7,314.1-331.3,313-362.9,313z"/>
<g>
	<g>
		<defs>
			<rect id="SVGID_1_" x="-407" y="284.9" width="88.1" height="30.1"/>
		</defs>
		<clipPath id="SVGID_2_">
			<use xlink:href="#SVGID_1_"  style="overflow:visible;"/>
		</clipPath>
		<g class="st1">
			<path d="M-321.5,291.9c0-1.9-0.8-3.9-2.4-5.2c-2.8-2.4-7.1-2-9.5,0.8l0,0l-5.3,6.4c-1.6,1.9-3.9,2.9-6.3,2.9h-34.9
				c-2.4,0-4.8-1.1-6.3-2.9l-5.4-6.4l0,0c-2.4-2.8-6.6-3.2-9.5-0.8c-1.6,1.3-2.4,3.3-2.4,5.2v25.3c0,4.8,3.9,8.7,8.7,8.7h64.7
				c4.8,0,8.7-3.9,8.7-8.7v-25.3H-321.5z"/>
			<g>
				<g>
					<g>
						<g>
							<g>
								<g>
									<path class="st2" d="M-362.5,313.3c-0.2,0-0.4-0.1-0.6-0.3l-2.4-2.6c-0.2-0.2-0.3-0.6-0.1-0.8c0.1-0.3,0.4-0.5,0.7-0.5h4.7
										c0.3,0,0.6,0.2,0.7,0.5c0.1,0.3,0.1,0.6-0.1,0.8l-2.4,2.6C-362.1,313.2-362.3,313.3-362.5,313.3z"/>
								</g>
							</g>
						</g>
					</g>
				</g>
			</g>
			<g>
				<path class="st2" d="M-385.5,320.8c-5.7,0-10.4-4.7-10.4-10.4c0-5.7,4.7-10.4,10.4-10.4s10.4,4.7,10.4,10.4
					C-375.1,316.2-379.7,320.8-385.5,320.8z"/>
			</g>
			<g>
				<path d="M-385.5,320c-2,0-3.6-4.4-3.6-9.6c0-5.2,1.7-9.6,3.6-9.6c2,0,3.6,4.4,3.6,9.6C-381.8,315.7-383.5,320-385.5,320z"/>
			</g>
			<g>
				<path class="st2" d="M-339.6,320.8c-5.7,0-10.4-4.7-10.4-10.4c0-5.7,4.7-10.4,10.4-10.4c5.7,0,10.4,4.7,10.4,10.4
					C-329.2,316.2-333.9,320.8-339.6,320.8z"/>
			</g>
			<g>
				<path d="M-339.6,320c-2,0-3.6-4.4-3.6-9.6c0-5.2,1.7-9.6,3.6-9.6c2,0,3.6,4.4,3.6,9.6C-336,315.7-337.7,320-339.6,320z"/>
			</g>
		</g>
	</g>
</g>
<g>
	<polygon class="st3" points="-420.2,251.7 -409.7,251.7 -409.7,273.2 -405.8,273.2 -405.8,251.7 -395.4,251.7 -395.4,247.8 
		-420.2,247.8 	"/>
	<path class="st3" d="M-316.2,265.9v-18h-3.9V266c0,4,3.3,7.3,7.3,7.3h7.1v-3.9h-7.1C-314.7,269.4-316.2,267.8-316.2,265.9z"/>
	<path class="st3" d="M-330.5,265.9v-18h-3.9V266c0,4,3.3,7.3,7.3,7.3h4v-3.9h-4C-329,269.4-330.5,267.8-330.5,265.9z"/>
	<path class="st3" d="M-368.9,248.1c-1-0.5-2.3-0.4-3.2,0.4l-3.7,3c-2.4,1.9-5.8,1.9-8.1,0l-3.7-3c-0.9-0.7-2.1-0.9-3.2-0.4
		c-1,0.5-1.7,1.5-1.7,2.7v22.5h3.9v-20.7l2.3,1.8c1.8,1.5,4.1,2.3,6.5,2.3c2.4,0,4.7-0.8,6.5-2.3l2.3-1.8v20.6h3.9v-22.4
		C-367.2,249.6-367.8,248.6-368.9,248.1z"/>
	<path class="st3" d="M-350.9,247.8L-350.9,247.8c-1.8,0-3.3,1-4.1,2.7l-9.9,22.8h4.2l3.7-8.4h12.1l3.7,8.4h4.2l-9.9-22.8
		C-347.6,248.8-349.1,247.8-350.9,247.8z M-355.3,260.9l3.9-8.9c0.1-0.3,0.3-0.3,0.5-0.3c0.2,0,0.4,0.1,0.5,0.3l3.9,8.9H-355.3z"/>
</g>
</svg>
