<svg xmlns="http://www.w3.org/2000/svg" viewBox="11726 -22078 43.954 50">
  <defs>
    <style>
      .man-cls-1 {
        fill: #53c419;
        fill-rule: evenodd;
      }
    </style>
  </defs>
  <path id="info" class="man-cls-1" d="M26.675,26.759l.1-1.672A12.907,12.907,0,1,0,18.169,12.1h-4.01A6.858,6.858,0,0,0,7.315,19.38l.461,7.379A10.681,10.681,0,0,0,11.232,34.7v1.291L9.808,38.121,3.143,39.939A4.275,4.275,0,0,0,0,44.054v3.408A2.541,2.541,0,0,0,2.538,50H31.913a2.541,2.541,0,0,0,2.538-2.538V44.054a4.275,4.275,0,0,0-3.143-4.115l-6.664-1.818-1.424-2.135V34.7A10.682,10.682,0,0,0,26.675,26.759ZM17.225,39.5,12.913,35.9a8.74,8.74,0,0,0,8.624,0Zm-5.01-2.066,3.81,3.175-2.083,2.083a.052.052,0,0,1-.043.016.05.05,0,0,1-.04-.024l-2.572-3.857Zm5.01,8.25c.068,0,.135,0,.2-.009l.556,2.709H16.468l.556-2.709C17.09,45.677,17.157,45.68,17.225,45.68Zm.918-2.538a.918.918,0,0,1-1.836,0v-.528l.918-.918.918.918v.528Zm.282-2.537,3.81-3.175.928,1.393L20.592,42.68a.05.05,0,0,1-.04.024.053.053,0,0,1-.043-.016ZM31.049,1.62A11.285,11.285,0,1,1,26.885,23.4l.251-4.016A6.858,6.858,0,0,0,20.291,12.1h-.5A11.3,11.3,0,0,1,31.049,1.62ZM10.342,15.366a5.188,5.188,0,0,1,3.818-1.652h6.132a5.238,5.238,0,0,1,5.228,5.564l-.152,2.438a15.191,15.191,0,0,0-1.453-2.4.81.81,0,0,0-.945-.255c-4.069,1.648-11.715,1.669-11.792,1.669a.809.809,0,0,0-.5.173,7.646,7.646,0,0,0-1.532,1.78l-.213-3.408a5.187,5.187,0,0,1,1.41-3.913ZM9.4,26.763a7.257,7.257,0,0,1,2.094-4.412c1.457-.018,7.516-.179,11.481-1.557a11.715,11.715,0,0,1,2.084,5.933c0,4.794-3.512,8.693-7.83,8.693S9.414,31.541,9.4,26.764ZM1.62,47.462V44.054A2.652,2.652,0,0,1,3.57,41.5l6.394-1.744,2.547,3.821a1.668,1.668,0,0,0,1.228.737q.084.008.167.008a1.664,1.664,0,0,0,.943-.293,2.546,2.546,0,0,0,.658.976l-.692,3.373H7.668V45.734a.81.81,0,0,0-1.62,0V48.38H2.538A.919.919,0,0,1,1.62,47.462Zm31.211-3.408v3.408a.919.919,0,0,1-.918.918H28.4V45.734a.81.81,0,1,0-1.62,0V48.38H19.636l-.692-3.373a2.546,2.546,0,0,0,.658-.976,1.664,1.664,0,0,0,.943.293q.083,0,.167-.008a1.669,1.669,0,0,0,1.228-.737l2.547-3.821L30.881,41.5A2.651,2.651,0,0,1,32.831,44.054ZM30.185,19.006a.81.81,0,1,0,0,1.62h1.728a.81.81,0,1,0,0-1.62h-.054V11.987h.054a.81.81,0,1,0,0-1.62H30.185a.81.81,0,1,0,0,1.62h.054v7.019Zm.864-10.583a1.566,1.566,0,1,0-1.566-1.566,1.566,1.566,0,0,0,1.566,1.566Z" transform="translate(11726 -22078)"/>
</svg>
