<?xml version="1.0" encoding="utf-8"?>
<!-- Generator: Adobe Illustrator 22.0.1, SVG Export Plug-In . SVG Version: 6.00 Build 0)  -->
<svg version="1.1" id="Ready" xmlns="http://www.w3.org/2000/svg" xmlns:xlink="http://www.w3.org/1999/xlink" x="0px" y="0px"
	 viewBox="0 0 40 40" style="enable-background:new 0 0 40 40;" xml:space="preserve">
<style type="text/css">
	.st0{fill:#53c419;}
</style>
<title>Artboard 23</title>
<path class="st0" d="M30,12c-4.9,0-8.4,4-10,6.2C18.4,16,14.9,12,10,12c-4.4,0-8,3.6-8,8s3.6,8,8,8c4.9,0,8.4-4,10-6.2
	C21.6,24,25.1,28,30,28c4.4,0,8-3.6,8-8S34.4,12,30,12z M10,26c-3.3,0-6-2.7-6-6s2.7-6,6-6c4.5,0,7.8,4.5,8.8,6
	C17.8,21.5,14.5,26,10,26z M30,26c-4.5,0-7.8-4.5-8.8-6c1-1.5,4.4-6,8.8-6c3.3,0,6,2.7,6,6S33.3,26,30,26z"/>
</svg>
