<svg id="Logo" xmlns="http://www.w3.org/2000/svg" viewBox="0 0 386.32 121.03"><defs><style>.cls-1{fill:#fff;}</style></defs><title>visa</title><path id="Shape" class="cls-1" d="M344,196.68a79.25,79.25,0,0,0-28-4.92c-30.91,0-52.68,15.9-52.86,38.69-.18,16.85,15.54,26.25,27.4,31.86,12.17,5.75,16.27,9.41,16.21,14.54C306.6,284.71,297,288.3,288,288.3c-12.52,0-19.17-1.77-29.44-6.16l-4-1.86-4.39,26.25c7.31,3.27,20.82,6.11,34.84,6.25,32.88,0,54.22-15.72,54.47-40.06.12-13.34-8.21-23.49-26.26-31.86-10.93-5.42-17.63-9-17.56-14.54,0-4.87,5.67-10.09,17.91-10.09a56.71,56.71,0,0,1,23.42,4.49l2.8,1.35L344,196.68" transform="translate(-63.15 -191.75)"/><path id="Shape-2" data-name="Shape" class="cls-1" d="M424.16,193.9H400c-7.49,0-13.09,2.09-16.38,9.72L337.16,311.08H370s5.37-14.45,6.58-17.62l40.06.05c.93,4.1,3.81,17.57,3.81,17.57h29L424.16,193.9Zm-38.57,75.58c2.58-6.76,12.46-32.78,12.46-32.78-.19.31,2.57-6.79,4.14-11.19l2.12,10.11s6,28,7.24,33.86Z" transform="translate(-63.15 -191.75)"/><path id="Shape-3" data-name="Shape" class="cls-1" d="M199.25,311l19.56-117.26h31.28L230.51,311Z" transform="translate(-63.15 -191.75)"/><path id="Shape-4" data-name="Shape" class="cls-1" d="M173,193.88l-30.62,80-3.26-16.25c-5.7-18.73-23.46-39-43.32-49.19l28,102.55,33.09,0,49.24-117H173" transform="translate(-63.15 -191.75)"/><path id="Shape-5" data-name="Shape" class="cls-1" d="M114,193.8H63.55l-.4,2.44c39.24,9.71,65.2,33.16,76,61.34l-11-53.88c-1.9-7.42-7.39-9.64-14.18-9.9" transform="translate(-63.15 -191.75)"/></svg>