<svg id="Logo" xmlns="http://www.w3.org/2000/svg" viewBox="0 0 403.84 112.98"><defs><style>.cls-1{fill:#fff;}</style></defs><title>pay_pal</title><path class="cls-1" d="M454.55,198.19H443.68a6.25,6.25,0,0,0-5.7,4.32c0,.1-.08.2-.1.3l-.71,3.21-14.92,67.65c-.33,1.47-.55,2.4-.62,2.66l0,0a3.57,3.57,0,0,0,3.23,4.53l0,0h11.25a6.27,6.27,0,0,0,5.69-4.27c0-.12.09-.23.12-.34l16.25-73.52h0A3.62,3.62,0,0,0,454.55,198.19Z" transform="translate(-54.48 -197.3)"/><path class="cls-1" d="M412.76,220.1c-4.6-2.57-11.8-3.87-21.65-3.87a95.74,95.74,0,0,0-14.68,1.15c-3.61.55-4,.64-6.22,1.13a7.09,7.09,0,0,0-5.32,5.62l-1.48,6.09c-.84,3.89,1.38,3.73,2.36,3.43a63.39,63.39,0,0,1,7.21-2.14A53.24,53.24,0,0,1,384.37,230c4.85,0,8.54.53,11,1.55A5.57,5.57,0,0,1,399,237a4.14,4.14,0,0,1-.2,1.72c-.2.48-.59.94-1.75,1.09-6.92.41-11.89,1-17.88,1.92A56,56,0,0,0,363.82,246a24,24,0,0,0-10.42,8.24,22.41,22.41,0,0,0-3.48,12.65,14.86,14.86,0,0,0,4.95,11.48c3.3,2.93,7.59,4.38,12.78,4.38a34.09,34.09,0,0,0,7.6-.71,38.27,38.27,0,0,0,5.84-2,30.39,30.39,0,0,0,5-2.76c1.77-1.18,3-2,4.56-3l.06.1-.44,1.95s0,0,0,0v0a3.59,3.59,0,0,0,3.24,4.54l0,0h11.27a.24.24,0,0,0,.17-.06,6.32,6.32,0,0,0,5.19-4.55l8.85-38.2a22.47,22.47,0,0,0,.46-3.13,24.83,24.83,0,0,0,.2-2.92A12.77,12.77,0,0,0,412.76,220.1Zm-21.45,45.52a31.75,31.75,0,0,1-4.76,2.45,17.08,17.08,0,0,1-6.32,1.38c-3,0-5.33-.43-6.89-1.34a4.67,4.67,0,0,1-2.36-4.52,9.21,9.21,0,0,1,1.76-5.92,12.57,12.57,0,0,1,5.17-3.5,44.68,44.68,0,0,1,8-1.79c2.76-.35,8.23-1,8.93-1s1.17-.39.85,1.47c-.14.81-1.72,7.29-2.44,10.23A5.77,5.77,0,0,1,391.32,265.62Z" transform="translate(-54.48 -197.3)"/><path class="cls-1" d="M328.13,234q-5.45,4-15.29,4h-3a3.58,3.58,0,0,1-3.67-4.61l3.64-15.75a6.21,6.21,0,0,1,5.76-4.59l4,0c4.65,0,8.13.8,10.53,2.35s3.51,4,3.53,7.23c0,4.93-1.81,8.72-5.46,11.43m26.16-24.27a18.52,18.52,0,0,0-6.67-7.15,30.08,30.08,0,0,0-10.54-3.87,84.53,84.53,0,0,0-14.25-1.12H297.47a6.31,6.31,0,0,0-5.78,4.62l-17,74.19a3.58,3.58,0,0,0,3.64,4.61l12.17,0a6.29,6.29,0,0,0,5.82-4.59l4.11-18a6.22,6.22,0,0,1,5.82-4.6h3.46q22.26,0,34.59-9.12t12.36-24.05a23.46,23.46,0,0,0-2.31-10.91" transform="translate(-54.48 -197.3)"/><path class="cls-1" d="M260.49,217.08c-2.6,0-6,2.1-7.61,4.64,0,0-17.37,29.78-19.07,32.75-.93,1.6-1.87.58-2,0s-5.38-32.54-5.38-32.54a6.65,6.65,0,0,0-6.61-4.75l-10.83,0a3.61,3.61,0,0,0-3.66,4.62s8.28,46.92,9.9,58c.8,6.1-.08,7.19-.08,7.19l-10.73,18.71c-1.57,2.54-.71,4.62,1.89,4.62h12.55c2.6,0,6-2.07,7.59-4.61L274.68,224s4.62-7,.36-6.92c-2.9,0-14.55,0-14.55,0" transform="translate(-54.48 -197.3)"/><path class="cls-1" d="M192.67,220c-4.6-2.57-11.8-3.86-21.65-3.86a95.61,95.61,0,0,0-14.68,1.15c-3.61.55-4,.64-6.22,1.13a7.09,7.09,0,0,0-5.32,5.62l-1.48,6.09c-.84,3.89,1.38,3.73,2.37,3.43a63.17,63.17,0,0,1,7.21-2.14,53.43,53.43,0,0,1,11.37-1.53c4.85,0,8.54.53,11,1.55a5.57,5.57,0,0,1,3.66,5.5,4.09,4.09,0,0,1-.19,1.72c-.2.48-.6.94-1.76,1.09-6.92.42-11.88,1-17.88,1.92a56.08,56.08,0,0,0-15.39,4.23,24,24,0,0,0-10.42,8.24,22.31,22.31,0,0,0-3.48,12.65,14.87,14.87,0,0,0,4.95,11.48c3.3,2.93,7.59,4.39,12.78,4.39a34.36,34.36,0,0,0,7.61-.71,38.66,38.66,0,0,0,5.83-2,30.57,30.57,0,0,0,5-2.77c1.77-1.18,3-2,4.57-3l0,.1-.44,1.95s0,0,0,.05l0,0a3.58,3.58,0,0,0,3.23,4.54l0,0h.2v0l9.33,0h1.73a.22.22,0,0,0,.17-.06,6.34,6.34,0,0,0,5.19-4.55l8.85-38.21a21.89,21.89,0,0,0,.45-3.13,24,24,0,0,0,.21-2.92A12.78,12.78,0,0,0,192.67,220Zm-21.45,45.52a31.68,31.68,0,0,1-4.76,2.45,17.16,17.16,0,0,1-6.33,1.37c-3,0-5.32-.43-6.89-1.33a4.69,4.69,0,0,1-2.36-4.52,9.22,9.22,0,0,1,1.76-5.92,12.54,12.54,0,0,1,5.17-3.5,44.91,44.91,0,0,1,8-1.79c2.76-.35,8.23-1,8.93-1s1.16-.39.85,1.47c-.13.81-1.71,7.29-2.44,10.23A5.85,5.85,0,0,1,171.22,265.57Z" transform="translate(-54.48 -197.3)"/><path class="cls-1" d="M108.07,233.68c-3.65,2.67-8.72,4-15.29,4h-3a3.62,3.62,0,0,1-3.69-4.63l3.65-15.72a6.17,6.17,0,0,1,5.79-4.61l4,0c4.63,0,8.16.79,10.53,2.37s3.53,4,3.49,7.22a13.07,13.07,0,0,1-5.47,11.39m26.17-24.23a18.09,18.09,0,0,0-6.64-7.13,30.58,30.58,0,0,0-10.52-3.88,86.78,86.78,0,0,0-14.31-1.14l-25.3,0a6.32,6.32,0,0,0-5.81,4.62L54.6,276.1a3.62,3.62,0,0,0,3.67,4.64H70.4a6.2,6.2,0,0,0,5.81-4.64l4.18-18a6.19,6.19,0,0,1,5.78-4.6h3.46c14.82,0,26.32-3,34.58-9.12s12.38-14.09,12.36-24a22.59,22.59,0,0,0-2.31-10.93" transform="translate(-54.48 -197.3)"/></svg>