<svg xmlns="http://www.w3.org/2000/svg" viewBox="10926 -22758 45.689 50">
  <defs>
    <style>
      .coin-cls-1 {
        fill: #53c419;
      }
    </style>
  </defs>
  <path id="Union_1" data-name="Union 1" class="coin-cls-1" d="M23807.125,11278.762c-.516-.512-1.6-1.549-2.746-2.642-1.967-1.88-3.283-3.138-3.588-3.491a3.491,3.491,0,0,1,.275-4.719l6.818-6.812a3.41,3.41,0,0,1,2.182-.99l12.533-.835,4.771-1.59a3.408,3.408,0,0,1,4.361,2.327,3.479,3.479,0,0,1-2.336,4.171l-4.625,1.651a.16.16,0,0,0-.092.083.154.154,0,0,0,.006.156.158.158,0,0,0,.139.077h6.1l1.162-.5,8.449-5.067a3.411,3.411,0,0,1,4.961,1.772,3.451,3.451,0,0,1-1.539,4.111l-8.572,5.139c-.014.008-.029.019-.047.027l-.307.156a.4.4,0,0,1-.051.021l-6.051,2.592a3.365,3.365,0,0,1-1.34.275h-12.824a4.385,4.385,0,0,0-2.8,1.014l-3.746,3.118a.8.8,0,0,1-.518.188A.807.807,0,0,1,23807.125,11278.762Zm20.762-19.541-4.873,1.621a.8.8,0,0,1-.2.041l-12.639.842a1.8,1.8,0,0,0-1.141.519l-6.816,6.813a1.893,1.893,0,0,0-.2,2.519c.277.318,2.053,2.014,3.479,3.373.85.812,1.662,1.587,2.244,2.151l3.182-2.649a6.023,6.023,0,0,1,3.842-1.39h12.82a1.808,1.808,0,0,0,.7-.144l6.025-2.58.26-.133,8.545-5.124a1.85,1.85,0,0,0,.852-2.165,1.784,1.784,0,0,0-2.6-.939l-8.5,5.094a.9.9,0,0,1-.1.05l-1.369.583a.76.76,0,0,1-.316.066h-6.264a1.782,1.782,0,0,1-.6-3.461l4.633-1.652a.049.049,0,0,1,.018-.008,1.885,1.885,0,0,0,1.295-2.2,1.782,1.782,0,0,0-1.719-1.315A1.745,1.745,0,0,0,23827.887,11259.221Zm-11.459-17.316a12.915,12.915,0,1,1,12.916,12.9A12.926,12.926,0,0,1,23816.428,11241.9Zm1.623,0a11.293,11.293,0,1,0,11.293-11.285A11.3,11.3,0,0,0,23818.051,11241.9Zm8.717,7.465v-2.941h-1.193v-1.4h1.193v-2.077h-1.193v-1.395h1.193v-6.586h3.895a6.529,6.529,0,0,1,1.764.236,4.406,4.406,0,0,1,1.477.718,3.542,3.542,0,0,1,1.014,1.214,3.741,3.741,0,0,1,.375,1.727,4.39,4.39,0,0,1-.338,1.787,3.31,3.31,0,0,1-.977,1.277,4.4,4.4,0,0,1-1.566.767,7.937,7.937,0,0,1-2.107.255h-1.889v2.077h3.877v1.4h-3.877v2.941Zm1.646-7.811h1.676a7.632,7.632,0,0,0,1.543-.137,3.059,3.059,0,0,0,1.123-.441,1.89,1.89,0,0,0,.688-.809,2.906,2.906,0,0,0,.23-1.223,3.02,3.02,0,0,0-.211-1.205,1.859,1.859,0,0,0-.631-.8,2.72,2.72,0,0,0-1.055-.44,6.987,6.987,0,0,0-1.475-.138h-1.889Z" transform="translate(-12874 -33987)"/>
</svg>
