<svg xmlns="http://www.w3.org/2000/svg" viewBox="11326 -22730 50 22.402">
  <defs>
    <style>
      .sale-cls-1 {
        fill: #53c419;
        fill-rule: evenodd;
      }
    </style>
  </defs>
  <path id="tag" class="sale-cls-1" d="M49.154,9.151,41.778,1.759A5.948,5.948,0,0,0,37.54,0h-35A2.543,2.543,0,0,0,0,2.543V19.858A2.543,2.543,0,0,0,2.538,22.4h35a5.948,5.948,0,0,0,4.238-1.759l7.376-7.392a2.907,2.907,0,0,0,0-4.1ZM48.009,12.1l-7.376,7.392a4.34,4.34,0,0,1-3.093,1.284h-35a.92.92,0,0,1-.918-.92V2.543a.92.92,0,0,1,.918-.92h35a4.34,4.34,0,0,1,3.093,1.284L48.009,10.3a1.279,1.279,0,0,1,0,1.8ZM8.153,7.684h2.16a.812.812,0,1,0,0-1.623H8.153a2.976,2.976,0,1,0,0,5.952,1.353,1.353,0,1,1,0,2.706H5.994a.812.812,0,1,0,0,1.623h2.16a2.976,2.976,0,0,0,0-5.952,1.353,1.353,0,1,1,0-2.706ZM17.113,6.57a.809.809,0,0,0-1.5,0l-3.456,8.658a.81.81,0,1,0,1.5.6l.833-2.087h3.741l.833,2.087a.81.81,0,1,0,1.5-.6Zm-1.975,5.55,1.223-3.063,1.223,3.063H15.138Zm12.454,2.6H23.218V6.872a.81.81,0,1,0-1.62,0V15.53a.811.811,0,0,0,.81.812h5.184a.812.812,0,1,0,0-1.623Zm7.775-7.034a.812.812,0,1,0,0-1.623H30.184a.811.811,0,0,0-.81.812V15.53a.811.811,0,0,0,.81.812h5.184a.812.812,0,1,0,0-1.623H30.994V12.012h2.646a.812.812,0,1,0,0-1.623H30.994V7.684h4.374Zm6.911.974A2.543,2.543,0,1,0,44.817,11.2a2.543,2.543,0,0,0-2.538-2.543Zm0,3.463a.92.92,0,1,1,.918-.92.92.92,0,0,1-.918.92Z" transform="translate(11326 -22730)"/>
</svg>
