<svg xmlns="http://www.w3.org/2000/svg" viewBox="10926.001 -22078 50 50">
  <defs>
    <style>
      .task-cls-1 {
        fill: #53c419;
        fill-rule: evenodd;
      }
    </style>
  </defs>
  <path id="task" class="task-cls-1" d="M7.72,0a7.721,7.721,0,1,0,7.721,7.721A7.721,7.721,0,0,0,7.72,0Zm0,13.823a6.1,6.1,0,1,1,6.1-6.1,6.1,6.1,0,0,1-6.1,6.1Zm0,3.456A7.721,7.721,0,1,0,15.442,25,7.721,7.721,0,0,0,7.72,17.279Zm0,13.823a6.1,6.1,0,1,1,6.1-6.1,6.1,6.1,0,0,1-6.1,6.1Zm0,3.456a7.721,7.721,0,1,0,7.721,7.721A7.721,7.721,0,0,0,7.72,34.557Zm0,13.823a6.1,6.1,0,1,1,6.1-6.1,6.1,6.1,0,0,1-6.1,6.1ZM9.739,5.421,6.856,8.3,5.7,7.149A.81.81,0,1,0,4.556,8.294l1.728,1.728a.81.81,0,0,0,1.145,0l3.456-3.456A.81.81,0,1,0,9.739,5.421Zm0,17.278L6.856,25.582,5.7,24.427a.81.81,0,1,0-1.145,1.145L6.284,27.3a.81.81,0,0,0,1.145,0l3.456-3.456A.81.81,0,1,0,9.739,22.7Zm9.212-16.76H34.5a.81.81,0,1,0,0-1.62H18.951a.81.81,0,1,0,0,1.62Zm0,5.184H49.189a.81.81,0,1,0,0-1.62H18.951a.81.81,0,1,0,0,1.62Zm0,12.095H34.5a.81.81,0,1,0,0-1.62H18.951a.81.81,0,1,0,0,1.62Zm30.237,3.564H18.951a.81.81,0,1,0,0,1.62H49.189a.81.81,0,1,0,0-1.62ZM18.951,40.5H34.5a.81.81,0,1,0,0-1.62H18.951a.81.81,0,1,0,0,1.62ZM49.189,44.06H18.951a.81.81,0,1,0,0,1.62H49.189a.81.81,0,1,0,0-1.62Z" transform="translate(10926.002 -22078)"/>
</svg>
