<?xml version="1.0" encoding="utf-8"?>
<!-- Generator: Adobe Illustrator 21.1.0, SVG Export Plug-In . SVG Version: 6.00 Build 0)  -->
<svg version="1.1" id="Logo" xmlns="http://www.w3.org/2000/svg" xmlns:xlink="http://www.w3.org/1999/xlink" x="0px" y="0px"
	 viewBox="0 0 364 232.9" style="enable-background:new 0 0 364 232.9;" xml:space="preserve">
<style type="text/css">
	.st0{opacity:0.8;fill:#FFFFFF;enable-background:new    ;}
	.st1{opacity:0.6;fill:#FFFFFF;enable-background:new    ;}
	.st2{fill:#FFFFFF;}
	.st3{fill:#067957;}
</style>
<title>union pay</title>
<path class="st0" d="M183.6,210L226,22.5c2.8-12.3,18.3-22.2,30.7-22.5h-82.3c-12.4,0-28.3,10.1-31.2,22.5l-42.4,187.6
	c-0.2,1.1-0.4,2.2-0.5,3.4v3.5c0.8,9,7.7,15.5,17.5,15.6h82.8C188.4,232.3,180.8,222.3,183.6,210z"/>
<path class="st1" d="M100.7,210l42.4-187.6c2.8-12.2,18.1-22.1,30.4-22.4h-35.6H73.7C61.3,0.3,45.8,10.3,43,22.5L0.6,210
	c-2.8,12.3,4.8,22.3,17,22.5h100.1C105.5,232.3,97.9,222.3,100.7,210z"/>
<path class="st2" d="M346,0.4h-89.6h-0.2c-12.3,0.4-27.6,10.3-30.4,22.4l-42.4,187.5c-2.8,12.3,4.8,22.3,17,22.5h94.2
	c12-0.6,23.7-10.4,26.5-22.4l42.4-187.6C366.2,10.5,358.4,0.4,346,0.4z"/>
<path class="st3" d="M155.5,139.8h1.6c1.1,0.1,2.3-0.4,2.8-1.4l4-6h10.8l-2.3,4h13l-1.6,6.1h-15.4c-1.8,2.7-4,3.9-6.6,3.8h-8
	L155.5,139.8 M153.7,148.6h28.5l-1.9,6.6h-11.4l-1.7,6.4h11.2l-1.8,6.6h-11.2l-2.6,9.5c-0.7,1.6,0.2,2.3,2.5,2.1h9.1l-1.7,6.1h-17.4
	c-3.3,0-4.4-1.9-3.4-5.7l3.3-12.1H148l1.8-6.6h7.1l1.8-6.4h-6.8L153.7,148.6z M199.1,132.3l-0.5,3.9c0,0,5.4-4,10.2-4h18l-6.9,24.9
	c-0.6,2.8-3,4.3-7.4,4.3h-20.4l-4.8,17.5c-0.3,0.9,0.1,1.4,1.1,1.4h4l-1.5,5.4h-10.2c-3.9,0-5.6-1.2-4.9-3.5l13.5-49.9L199.1,132.3z
	 M214.4,139.3h-16.1l-1.9,6.7c2.1-1.3,4.6-2,7.2-2c4.5-0.1,9.5,0,9.5,0L214.4,139.3z M208.6,155c1.2,0.2,1.9-0.3,1.9-1.4l1-3.5
	h-16.1l-1.4,5L208.6,155z M197.7,163h9.3l-0.2,4h2.5c1.3,0,1.9-0.4,1.9-1.2l0.7-2.6h7.7l-1,3.8c-0.9,3.2-3.2,4.8-6.9,5h-4.9v6.9
	c-0.1,1.1,0.9,1.7,3,1.7h4.6l-1.5,5.4h-11.3c-3.1,0.1-4.7-1.3-4.6-4.5L197.7,163z"/>
<path class="st3" d="M237.1,140.1l2.2-7.6h10.9l-0.5,2.8c0,0,5.5-2.8,9.6-2.8h13.5l-2.1,7.6h-2.1l-10.2,35.7h2.1l-2,7.1h-2.1
	l-0.9,3.1h-10.5l0.9-3.1H225l2-7.1h2.1l10.2-35.7L237.1,140.1 M248.8,140.1l-2.7,9.6c2.9-1.1,5.8-1.9,8.8-2.3
	c0.9-3.4,2.1-7.3,2.1-7.3L248.8,140.1z M244.8,154.3l-2.8,10.1c0,0,5.3-2.6,8.9-2.8c1-3.9,2.1-7.3,2.1-7.3L244.8,154.3z
	 M246.8,175.9l2.1-7.4h-8.1l-2.1,7.4H246.8z M273.1,132.1h10.2l0.4,3.8c-0.1,1,0.5,1.4,1.7,1.4h1.8l-1.8,6.4H278
	c-2.9,0.1-4.4-1-4.5-3.3L273.1,132.1z M270.1,145.8h33.2l-2,6.9h-10.5l-1.8,6.4h10.5l-2,6.9h-11.7l-2.7,4h5.8l1.3,8
	c0.2,0.8,0.9,1.2,2.1,1.2h1.8l-1.8,6.6H286c-3.3,0.2-5-0.9-5.1-3.3l-1.6-7.3l-5.2,7.8c-1.1,2.1-3.3,3.4-5.7,3.1h-9.6l1.9-6.6h3
	c1.3,0,2.4-0.6,3.2-1.7l8.2-11.8h-10.5l2-6.9h11.5l1.8-6.4h-11.5L270.1,145.8z"/>
<path class="st3" d="M85.2,99.1c-1,5.7-4.1,10.8-8.7,14.3c-4.5,3.3-10.3,5-17.4,5c-6.7,0-11.6-1.7-14.7-5.1
	c-2.2-2.5-3.4-5.8-3.2-9.2c0-1.7,0.2-3.4,0.6-5l7.5-36.3h11.4l-7.4,36c-0.2,0.9-0.3,1.8-0.3,2.8c-0.1,1.6,0.4,3.2,1.4,4.5
	c1.4,1.8,3.5,2.6,6.6,2.6c3.1,0.1,6.1-0.8,8.6-2.6c2.3-1.8,3.9-4.4,4.4-7.3l7.5-36h11.3L85.2,99.1"/>
<path class="st3" d="M95.7,84.7h8l-0.9,4.7l1.1-1.3c2.4-2.7,5.9-4.2,9.5-4.2c3.4,0,5.8,1,7.4,3c1.5,2,1.9,4.7,1.2,8.2l-4.4,22.1
	h-8.3l4-20.1c0.4-2.1,0.3-3.6-0.3-4.6s-1.8-1.5-3.6-1.5c-2,0-3.9,0.7-5.4,2c-1.5,1.5-2.6,3.4-2.9,5.5l-3.7,18.7h-8.3L95.7,84.7"/>
<path class="st3" d="M188,84.7h8.1l-0.9,4.7l1.1-1.3c2.4-2.7,5.9-4.2,9.5-4.2c3.4,0,5.8,1,7.4,3c1.5,2,1.9,4.7,1.2,8.2l-4.4,22.1
	h-8.3l4-20.1c0.4-2.1,0.3-3.6-0.3-4.6s-1.8-1.5-3.6-1.5c-2,0-3.9,0.7-5.4,2c-1.5,1.5-2.6,3.4-2.9,5.5l-3.7,18.7h-8.3L188,84.7"/>
<path class="st3" d="M133.1,84.7h8.9l-7,32.5h-8.9L133.1,84.7 M135.9,72.9h9l-1.7,7.9h-9L135.9,72.9z"/>
<path class="st3" d="M149.9,114.7c-2.4-2.4-3.7-5.7-3.5-9.1c0-0.6,0-1.4,0.1-2.2s0.2-1.6,0.4-2.4c0.8-4.8,3.2-9.2,6.8-12.6
	c3.4-3.1,7.9-4.8,12.5-4.7c4,0,7.2,1.1,9.5,3.4c2.3,2.2,3.5,5.3,3.5,9.2c0,0.7,0,1.4-0.1,2.3s-0.2,1.6-0.4,2.4
	c-0.8,4.8-3.2,9.1-6.8,12.4c-3.4,3-7.9,4.7-12.5,4.6C155.4,118,152.2,116.9,149.9,114.7 M166.9,108.3c1.6-1.7,2.7-4.3,3.4-7.7
	c0.1-0.5,0.2-1.1,0.3-1.7c0.1-0.5,0.1-1,0.1-1.5c0.1-1.7-0.4-3.3-1.5-4.6c-1.1-1.2-2.7-1.8-4.3-1.7c-2.3-0.1-4.5,0.9-6.1,2.6
	c-1.6,1.7-2.7,4.4-3.4,7.9c-0.1,0.5-0.2,1.1-0.3,1.6c-0.1,0.5-0.1,1-0.1,1.5c-0.1,1.7,0.4,3.3,1.5,4.6c1.1,1.1,2.7,1.7,4.3,1.6
	C163.1,111,165.3,110,166.9,108.3"/>
<path class="st3" d="M227.8,64.6h23.4c4.5,0,8,1,10.4,3s3.6,4.9,3.6,8.7v0.1c0,0.7,0,1.5-0.1,2.4s-0.3,1.8-0.5,2.7
	c-0.9,4.7-3.4,9-7.1,12.1c-3.7,3.1-8.4,4.7-13.2,4.6h-12.5l-3.9,19H217L227.8,64.6 M233.7,89h10.4c2.3,0.1,4.6-0.5,6.4-1.9
	c1.7-1.5,2.8-3.6,3.2-5.8c0.1-0.5,0.1-0.9,0.2-1.3s0.1-0.8,0.1-1.1c0.1-1.6-0.6-3.2-2-4.1c-1.3-0.9-3.4-1.3-6.3-1.3h-8.9L233.7,89z"
	/>
<path class="st3" d="M313.8,123.5c-3.4,7.3-6.7,11.5-8.6,13.5s-5.7,6.5-14.9,6.2l0.8-5.6c7.7-2.4,11.9-13.1,14.3-17.9l-2.8-35l6-0.1
	h5l0.5,21.9l9.4-21.9h9.5L313.8,123.5"/>
<path class="st3" d="M287.2,87.4l-3.8,2.6c-4-3.1-7.6-5-14.5-1.8c-9.5,4.4-17.4,38.1,8.7,27l1.5,1.8l10.3,0.3l6.7-30.6L287.2,87.4
	 M281.4,104.2c-1.6,4.9-5.3,8.1-8.2,7.2s-3.9-5.6-2.3-10.5s5.4-8.1,8.2-7.2S283.1,99.3,281.4,104.2"/>
</svg>
