<svg id="Logo" xmlns="http://www.w3.org/2000/svg" viewBox="0 0 401.96 141.33"><defs><style>.cls-1{fill:#fff;}</style></defs><title>american_express</title><path class="cls-1" d="M329.93,190v9.86H319.75c-3.83,0-6,.66-8.27,2.64-1.91,2-2.87,5.59-2.87,10.52s1,8.56,2.87,10.86c1.59,1.64,4.44,2.3,7.32,2.3h4.77L338.84,190h15.92l17.82,43.42V190h16.56l18.78,31.91V190h10.82v46H403.46L383.4,201.51V236H361.75l-4.13-10.21H335.34L331.21,236H318.79c-5.09,0-11.78-1.32-15.6-5.27-3.5-3.94-5.4-9.21-5.4-17.43,0-6.91.95-13.15,5.72-18.09,3.18-3.62,8.92-5.26,16.24-5.26h10.19m9.23,26h14.65l-7.32-18.09L339.16,216m-46.79-26v46H281.54V190h10.83M257,190c5.42,0,9.24,0,12.73,2a11.47,11.47,0,0,1,5.74,10.52,13,13,0,0,1-7.63,12.17,13.32,13.32,0,0,1,5.09,3.94c1.59,2.31,1.91,4.28,1.91,8.23v9.22H264v-5.93c0-2.63.32-6.58-1.58-8.88-1.59-1.65-4.14-2-8-2H243V236h-10.5V190H257m-14,19.73h13.06c2.22,0,3.82,0,5.4-1,1.28-.65,1.91-2.3,1.91-4.27a5,5,0,0,0-1.91-4.28c-1.27-.66-3.49-.66-5.4-.66H243v10.19M224.89,190v9.54H200.06v8.21h24.51v9.54H200.06v9.22h24.83V236H189.24V190h35.65m-43.61,0v46H170.45V199.86L154.85,236h-9.23L130,199.86V236H108.38l-4.14-10.21H82L77.83,236H66.36l19.1-46h15.91l18.14,43.42V190h17.19l14,31.25,13-31.25h17.51m-95.5,26h14.63l-7.32-18.09L85.78,216m276.93,53.27v9.54H337.57v8.56h24.5v9.21h-24.5v9.21h25.14v9.53H327.07V269.25h35.64m83.4,0v9.87H426.38c-1.91,0-3.19,0-4.14.67a4.77,4.77,0,0,0-1.59,3.62,3.57,3.57,0,0,0,2.22,3.28,15.49,15.49,0,0,0,4.15.66h5.72c6,0,9.87,1.31,12.42,3.62,1.91,2.3,3.19,5.26,3.19,9.87,0,9.87-6,14.46-16.88,14.46H410.78v-9.87h20.69c1.92,0,3.5-.32,4.15-1a4.24,4.24,0,0,0,1.27-3,5,5,0,0,0-1.27-3.28c-.64-.66-1.91-1-3.83-1-9.87-.33-22.29.33-22.29-14.14,0-6.58,4.15-13.82,15.28-13.82h21.33m-41.7,0v9.87H384.68c-1.91,0-3.18,0-4.13.67a3.9,3.9,0,0,0-1.59,3.62,3.56,3.56,0,0,0,2.23,3.28,15.28,15.28,0,0,0,4.13.66H391c6,0,9.88,1.31,12.42,3.62,1.91,2.3,3.18,5.26,3.18,9.87,0,9.86-6.05,14.46-16.88,14.46H369.08v-9.87h20.69a7.06,7.06,0,0,0,4.15-1,4.31,4.31,0,0,0,1.28-3,5.13,5.13,0,0,0-1.28-3.28c-.64-.66-1.92-1-3.83-1-9.86-.33-22.29.33-22.29-14.14,0-6.58,3.83-13.82,15.28-13.82h21.33m-101.86,0c5.42,0,9.56.33,13,2.31S321,276.5,321,281.77c0,7.24-4.79,11.18-7.63,12.17a12.64,12.64,0,0,1,5.4,3.95c1.28,2.29,1.58,4.28,1.58,8.55v8.89h-10.5v-5.59c0-3,0-6.91-1.91-9.22-1.59-1.64-3.82-2-7.63-2H288.86v16.79H278V269.27h24.5m-13.69,20.07,13.05-.33a12.73,12.73,0,0,0,5.1-.66,5.84,5.84,0,0,0,2.23-4.61,4.2,4.2,0,0,0-2.23-3.94c-1.28-1-3.18-1-5.1-1H288.86v10.53m-33.73-20.07c8.27,0,17.82,2.64,17.82,15.15,0,12.82-9.23,15.45-18.46,15.45H241.12v15.47H220.43l-13-15.15-13.69,15.15H151.35V269.27h43l13.05,15.14,13.69-15.14h34.06m-24.51,42.1V274.2l-16.55,18.09,16.55,19.08m-68.76-24h23.55v9.21H161.86v9.21h26.41l12.1-13.5-11.77-13.48H161.86v8.56m79.26,3.3h14c3.82,0,6.36-2.3,6.36-6.24s-2.54-5.61-6.36-5.61h-14v11.84M337.93,182H319.75c-8.24,0-14.73,1.78-19.37,5.31V182H273.54v2.92C268.27,182,263.06,182,257,182h-98.6l-2.05,4.92-5.93,14.19L144,186.73,141.89,182H111.52v11.52l-2.76-6.6L106.71,182H80.12l-2,4.93L59,233,54.38,244H83.22l2-5,2.11-5.22h11.5l2.11,5.22,2,5h35v-5.41l.25.57,2.08,4.83h19.76l2.08-4.83.25-.58V244H251V227.27h3.46c.63,0,1.14,0,1.55,0,0,.61,0,1.26,0,1.72s0,.76,0,1.11v13.93h44.33v-5.2c6.53,4.64,14.81,5.2,18.42,5.2h17.81l2-5,2.1-5.21h11.5l2.11,5.21,2,5h35V231.21l5.14,8.85,2.31,4h27.88V182H399.92v10.54l-3.88-6.6L393.72,182H364.58v10.86L362.16,187l-2-5H337.93Zm-20.7,26.16a6.12,6.12,0,0,1,2.51-.29h2.87l-4.36,10.31a7.39,7.39,0,0,1-1-.11,14.59,14.59,0,0,1-.66-5,13.53,13.53,0,0,1,.63-4.87Zm53.47,53.1H319.07v3.1c-5.3-2.84-11.06-3.09-16.52-3.09H270v3.31a31.29,31.29,0,0,0-14.92-3.31H217.52l-2.38,2.63-7.61,8.42L200.39,264,198,261.27H143.35v62.06h53.89l2.38-2.64,7.61-8.42,7.13,8.28,2.39,2.78h32.36V307.86h5.37c6.74,0,11.79-1.31,15.56-3.34v18.81h26.82V306.54h3.47c.59,0,1.07,0,1.45,0,.09,1.06.09,2.39.09,3.17v13.59h87.89a31.18,31.18,0,0,0,13-2.53v2.53h28.69c15.58,0,24.88-8.4,24.88-22.46a22.79,22.79,0,0,0-4.07-13.72h1.83V261.26H424.78a25.64,25.64,0,0,0-12.37,2.88v-2.88H383.08A26.17,26.17,0,0,0,370.71,264v-2.8Z" transform="translate(-54.38 -182)"/></svg>