<?xml version="1.0" encoding="utf-8"?>
<!-- Generator: Adobe Illustrator 22.0.1, SVG Export Plug-In . SVG Version: 6.00 Build 0)  -->
<svg version="1.1" id="Ready" xmlns="http://www.w3.org/2000/svg" xmlns:xlink="http://www.w3.org/1999/xlink" x="0px" y="0px"
	 viewBox="0 0 40 40" style="enable-background:new 0 0 40 40;" xml:space="preserve">
<style type="text/css">
	.st0{fill:#53c419;}
</style>
<title>Artboard 32</title>
<path class="st0" d="M30.1,13C26.3,6.3,17.7,4,11,7.9S2,20.3,5.9,27s12.4,9,19.1,5.1c2.1-1.2,3.9-3,5.1-5.1l1.7,1
	c-4.4,7.7-14.2,10.3-21.9,5.9S-0.3,19.7,4.1,12S18.4,1.7,26,6.1c2.4,1.4,4.5,3.4,5.9,5.9L30.1,13z M35,16h-2v3h-3v2h3v3h2v-3h3v-2
	h-3V16z M16,26v-2h1v-2h-1v-3h-2v3h-3.7l2.5-7.7l-1.9-0.6l-2.7,8.4l-0.1,0.5L8.9,24H14v2H16z M26.4,16.8l1.2-1.6
	c-2.4-1.7-5.7-1.5-7.9,0.6c-2.5,2.2-2.8,6-0.6,8.5s6,2.8,8.5,0.6l0,0l0.4-0.3V19h-4v2h2v2.5c-1.6,0.9-3.5,0.6-4.8-0.6
	c-1.6-1.6-1.6-4.1,0-5.7c0,0,0,0,0,0C22.6,15.8,24.8,15.6,26.4,16.8z"/>
</svg>
