<?xml version="1.0" encoding="utf-8"?>
<!-- Generator: Adobe Illustrator 22.0.1, SVG Export Plug-In . SVG Version: 6.00 Build 0)  -->
<svg version="1.1" id="Ready" xmlns="http://www.w3.org/2000/svg" xmlns:xlink="http://www.w3.org/1999/xlink" x="0px" y="0px"
	 viewBox="0 0 40 40" style="enable-background:new 0 0 40 40;" xml:space="preserve">
<style type="text/css">
	.st0{fill:#53c419;}
</style>
<title>Artboard 8</title>
<path class="st0" d="M17,6V4c10.5,0,19,8.5,19,19h-2C34,13.6,26.4,6,17,6z"/>
<path class="st0" d="M17,18v-2c3.9,0,7,3.1,7,7h-2C22,20.2,19.8,18,17,18z"/>
<path class="st0" d="M17,12v-2c7.2,0,13,5.8,13,13h-2C28,16.9,23.1,12,17,12z"/>
<path class="st0" d="M21.5,36h1l3.5-3.6l-6.8-6.8l-2.8,2.8c-2.1-1.1-3.8-2.8-4.9-4.8l2.8-2.8L7.6,14L4,17.6v1
	C4.1,28.1,11.9,35.9,21.5,36z M6,18.4l1.6-1.6l3.8,4L9,23.2l0.3,0.6c1.5,2.9,3.9,5.2,6.8,6.6l0.6,0.3l2.4-2.4l4,4L21.6,34h-0.1
	C13,33.9,6.1,27,6,18.5V18.4z"/>
</svg>
