<?xml version="1.0" encoding="utf-8"?>
<!-- Generator: Adobe Illustrator 21.1.0, SVG Export Plug-In . SVG Version: 6.00 Build 0)  -->
<svg version="1.1" id="Logo" xmlns="http://www.w3.org/2000/svg" xmlns:xlink="http://www.w3.org/1999/xlink" x="0px" y="0px"
	 viewBox="0 0 342 204.7" style="enable-background:new 0 0 342 204.7;" xml:space="preserve">
<style type="text/css">
	.st0{opacity:0.8;fill:#FFFFFF;enable-background:new    ;}
	.st1{fill:#FFFFFF;}
	.st2{fill:#171C2C;}
</style>
<title>mastercard</title>
<polygon class="st0" points="239.5,204.7 244.8,204.6 250,204.2 255.1,203.5 260.2,202.6 265.1,201.5 270,200.1 274.7,198.5 
	279.4,196.7 283.9,194.6 288.4,192.3 292.6,189.9 296.8,187.2 300.8,184.3 304.7,181.3 308.4,178.1 312,174.7 315.4,171.1 
	318.6,167.4 321.6,163.5 324.5,159.5 327.2,155.3 329.7,151.1 331.9,146.6 334,142.1 335.8,137.4 337.4,132.6 338.8,127.8 
	339.9,122.8 340.8,117.8 341.5,112.7 341.9,107.4 342,102.2 341.9,96.9 341.5,91.7 340.8,86.6 339.9,81.6 338.8,76.7 337.4,71.8 
	335.8,67.1 334,62.5 331.9,57.9 329.7,53.5 327.2,49.3 324.5,45.1 321.6,41.1 318.6,37.2 315.4,33.5 312,30 308.4,26.6 304.7,23.4 
	300.8,20.3 296.8,17.5 292.6,14.8 288.4,12.4 283.9,10.1 279.4,8 274.7,6.2 270,4.6 265.1,3.2 260.2,2.1 255.1,1.2 250,0.5 
	244.8,0.1 239.5,0 234.2,0.1 229,0.5 223.9,1.2 218.9,2.1 213.9,3.2 209.1,4.6 204.3,6.2 199.7,8 195.1,10.1 190.8,12.4 186.5,14.8 
	182.3,17.5 178.3,20.3 174.5,23.4 170.8,26.6 167.2,30 163.8,33.5 160.6,37.2 157.6,41.1 154.8,45.1 152.1,49.3 149.6,53.5 
	147.4,57.9 145.3,62.5 143.5,67.1 141.9,71.8 140.5,76.7 139.4,81.6 138.5,86.6 137.8,91.7 137.4,96.9 137.3,102.2 137.4,107.4 
	137.8,112.7 138.5,117.8 139.4,122.8 140.5,127.8 141.9,132.6 143.5,137.4 145.3,142.1 147.4,146.6 149.6,151.1 152.1,155.3 
	154.8,159.5 157.6,163.5 160.6,167.4 163.8,171.1 167.2,174.7 170.8,178.1 174.5,181.3 178.3,184.3 182.3,187.2 186.5,189.9 
	190.8,192.3 195.1,194.6 199.7,196.7 204.3,198.5 209.1,200.1 213.9,201.5 218.9,202.6 223.9,203.5 229,204.2 234.2,204.6 "/>
<polygon class="st1" points="102.5,204.7 107.8,204.6 113,204.2 118.1,203.5 123.2,202.6 128.1,201.5 133,200.1 137.7,198.5 
	142.4,196.7 146.9,194.6 151.3,192.3 155.5,189.9 159.7,187.2 163.7,184.3 167.6,181.3 171.3,178.1 174.8,174.7 178.2,171.1 
	181.4,167.4 184.4,163.5 187.3,159.5 189.9,155.3 192.4,151.1 194.7,146.6 196.7,142.1 198.5,137.4 200.1,132.6 201.5,127.8 
	202.6,122.8 203.5,117.8 204.2,112.7 204.6,107.4 204.7,102.2 204.6,96.9 204.2,91.7 203.5,86.6 202.6,81.6 201.5,76.7 200.1,71.8 
	198.5,67.1 196.7,62.5 194.7,57.9 192.4,53.5 189.9,49.3 187.3,45.1 184.4,41.1 181.4,37.2 178.2,33.5 174.8,30 171.3,26.6 
	167.6,23.4 163.7,20.3 159.7,17.5 155.5,14.8 151.3,12.4 146.9,10.1 142.4,8 137.7,6.2 133,4.6 128.1,3.2 123.2,2.1 118.1,1.2 
	113,0.5 107.8,0.1 102.5,0 97.3,0.1 92.1,0.5 86.9,1.2 81.9,2.1 76.9,3.2 72.1,4.6 67.3,6.2 62.6,8 58.1,10.1 53.7,12.4 49.4,14.8 
	45.2,17.5 41.2,20.3 37.3,23.4 33.6,26.6 30,30 26.6,33.5 23.4,37.2 20.4,41.1 17.5,45.1 14.9,49.3 12.4,53.5 10.1,57.9 8,62.5 
	6.2,67.1 4.6,71.8 3.2,76.7 2.1,81.6 1.2,86.6 0.5,91.7 0.1,96.9 0,102.2 0.1,107.4 0.5,112.7 1.2,117.8 2.1,122.8 3.2,127.8 
	4.6,132.6 6.2,137.4 8,142.1 10.1,146.6 12.4,151.1 14.9,155.3 17.5,159.5 20.4,163.5 23.4,167.4 26.6,171.1 30,174.7 33.6,178.1 
	37.3,181.3 41.2,184.3 45.2,187.2 49.4,189.9 53.7,192.3 58.1,194.6 62.6,196.7 67.3,198.5 72.1,200.1 76.9,201.5 81.9,202.6 
	86.9,203.5 92.1,204.2 97.3,204.6 "/>
<polygon class="st2" points="122.4,99.1 121.9,99 121.4,98.9 120.9,98.9 120.5,98.8 120.1,98.7 119.6,98.7 119.2,98.6 118.7,98.5 
	118.2,98.5 117.7,98.4 117,98.4 116.4,98.4 115.7,98.4 114.9,98.4 114,98.5 113,98.5 112.3,98.6 111.6,98.7 111,98.9 110.5,99.2 
	110,99.4 109.6,99.7 109.2,100 108.9,100.3 108.7,100.7 108.6,101.1 108.5,101.5 108.5,101.9 108.6,102.4 108.7,102.8 109,103.3 
	109.3,103.7 110,104.4 110.9,104.9 111.8,105.3 112.9,105.7 114,106.1 115.1,106.4 116.3,106.9 117.3,107.3 118.4,107.9 
	119.4,108.6 120.2,109.5 120.9,110.5 121.5,111.9 121.8,113.4 122,115.3 121.8,117.5 121.6,119.1 121.2,120.5 120.6,121.8 
	119.9,122.9 119.2,123.9 118.3,124.8 117.3,125.6 116.2,126.2 115.1,126.7 114,127.2 112.8,127.5 111.6,127.8 110.4,128 
	109.3,128.1 108.1,128.2 107.1,128.2 105.6,128.2 104.2,128.2 103,128.2 101.8,128.2 100.8,128.1 99.9,128.1 99.1,128 98.3,127.9 
	97.5,127.8 96.9,127.7 96.2,127.6 95.6,127.4 95.1,127.3 94.5,127.1 93.9,126.8 93.4,126.6 94.9,119 95.2,119.1 95.6,119.2 
	96.1,119.3 96.7,119.5 97.3,119.6 98,119.7 98.8,119.9 99.6,120 100.4,120.2 101.3,120.3 102.3,120.4 103.2,120.5 104.2,120.6 
	105.2,120.6 106.2,120.6 107.2,120.6 108.2,120.4 109,120.1 109.7,119.7 110.1,119.2 110.5,118.7 110.8,118.2 110.9,117.6 
	111.1,117.1 111.1,116.1 110.8,115.2 110.2,114.6 109.4,114 108.3,113.4 107.1,112.9 105.8,112.4 104.4,111.9 103.1,111.3 
	101.8,110.5 100.5,109.6 99.4,108.6 98.6,107.3 97.9,105.7 97.6,103.8 97.7,101.6 97.8,100.3 98.1,99 98.4,97.8 98.8,96.7 
	99.4,95.7 100,94.8 100.8,93.9 101.6,93.2 102.6,92.5 103.7,92 105,91.5 106.3,91.1 107.9,90.8 109.6,90.5 111.4,90.4 113.5,90.3 
	114.8,90.3 115.9,90.4 117,90.4 118,90.5 118.8,90.5 119.6,90.6 120.3,90.7 120.9,90.7 121.5,90.8 122,90.9 122.5,91 122.9,91 
	123.2,91.1 123.5,91.1 123.8,91.2 124.1,91.2 "/>
<polygon class="st2" points="130.5,82.7 140.1,82.7 138.7,91.1 144.5,91.1 143.2,98.9 137.1,98.7 133.8,118 133.8,118.7 134,119.2 
	134.3,119.7 134.8,120.1 135.4,120.3 136.1,120.5 136.8,120.7 137.7,120.7 138.4,120.7 139.1,120.6 139.7,120.5 140.3,120.4 
	140.7,120.2 141,120.1 141.3,120.1 141.3,120 140.1,126.5 139.9,126.6 139.6,126.8 139.4,126.9 139.1,127.1 138.9,127.2 
	138.6,127.3 138.3,127.4 138,127.5 137.7,127.6 137.3,127.6 136.9,127.7 136.5,127.8 136,127.8 135.5,127.9 135,128 134.4,128.1 
	131.8,128.1 130.4,127.9 129.2,127.8 128.1,127.6 127.1,127.4 126.3,127.1 125.7,126.7 125.1,126.3 124.6,125.8 124.3,125.4 
	124.1,124.8 123.9,124.2 123.8,123.5 123.7,122.8 123.7,122 123.8,121.3 123.9,120.4 "/>
<polygon class="st2" points="152.1,111.9 152,112.5 151.9,113.1 152,113.8 152.2,114.4 152.4,115.1 152.7,115.7 153.1,116.3 
	153.5,116.9 153.9,117.5 154.5,118 155,118.6 155.6,119 156.3,119.4 157,119.7 157.6,119.9 158.3,120 159.2,120.2 160.1,120.3 
	161,120.4 161.9,120.5 162.8,120.5 163.7,120.5 164.6,120.5 165.6,120.4 166.5,120.2 167.4,120.1 168.4,119.9 169.3,119.6 
	170.3,119.2 171.3,118.8 172.3,118.2 173.3,117.6 171.9,126.1 171.3,126.4 170.8,126.7 170.2,126.9 169.7,127.1 169.2,127.3 
	168.6,127.4 168.1,127.6 167.5,127.7 166.9,127.8 166.2,127.8 165.4,127.9 164.7,128 163.8,128 162.8,128 161.8,128.1 160.6,128.1 
	158.9,128 157.2,127.8 155.5,127.6 153.7,127.2 152.1,126.7 150.4,126 148.9,125.2 147.4,124.2 146.1,123 144.9,121.6 143.9,120 
	143.1,118.1 142.5,116.1 142.1,113.8 142,111.2 142.2,108.4 142.3,107.3 142.5,106 142.8,104.7 143.2,103.2 143.7,101.7 
	144.3,100.3 145.1,98.7 146.1,97.3 147.2,95.9 148.5,94.6 150.1,93.4 151.8,92.4 153.8,91.5 156,90.9 158.5,90.5 161.3,90.3 
	162.6,90.4 164.1,90.5 165.5,90.8 166.9,91.1 168.3,91.6 169.6,92.2 170.9,93.1 172,94 173.1,95.2 173.9,96.6 174.6,98.2 175.1,100 
	175.4,102.1 175.4,104.4 175.1,107.1 174.6,110 174.5,112.1 152.1,112.1 153.4,105.3 166,105.3 166.1,104.4 166,103.6 166,102.8 
	165.8,102.1 165.6,101.5 165.3,100.9 165,100.4 164.7,99.9 164.2,99.5 163.8,99.1 163.3,98.8 162.8,98.5 162.2,98.3 161.6,98.2 
	161.1,98.1 160.4,98 159.8,98 159.2,98.2 158.6,98.3 158,98.5 157.4,98.8 156.9,99.1 156.4,99.5 155.9,99.9 155.5,100.4 
	155.1,100.9 154.7,101.4 154.4,102 154.1,102.6 153.8,103.3 153.6,104 153.5,104.7 "/>
<polygon class="st2" points="234.4,93.1 234,92.9 233.5,92.7 233.1,92.5 232.5,92.2 232,92 231.4,91.8 230.8,91.6 230.2,91.4 
	229.6,91.2 228.9,91.1 228.2,90.9 227.5,90.8 226.7,90.8 225.9,90.7 225,90.7 224.2,90.7 223.3,90.7 222.4,90.8 221.5,90.9 
	220.5,91 219.6,91.3 218.6,91.7 217.6,92.2 216.6,92.8 215.7,93.6 214.8,94.5 214,95.6 213.1,96.8 212.4,98.4 211.6,100.1 211,102 
	210.4,104.2 210.2,105.5 210.1,106.7 210,107.9 210.1,109.1 210.2,110.2 210.4,111.3 210.7,112.4 211.1,113.4 211.6,114.3 
	212.2,115.2 213,116 213.8,116.8 214.7,117.4 215.8,117.9 217,118.4 218.3,118.7 218.7,118.8 219.2,118.9 219.9,118.9 220.6,119 
	221.3,119.1 222.1,119.1 223,119.1 223.8,119 224.7,118.9 225.6,118.7 226.5,118.5 227.4,118.2 228.2,117.8 229,117.4 229.7,116.8 
	230.4,116.2 228.9,125.4 228.7,125.6 228.5,125.8 228.2,126.1 227.9,126.3 227.5,126.5 227,126.8 226.5,127 225.8,127.2 225,127.5 
	224.1,127.6 223.1,127.8 221.9,127.9 220.6,128 219,128 217.2,128 215.3,127.9 213.7,127.7 212.1,127.4 210.5,126.8 208.9,126.2 
	207.4,125.3 206,124.3 204.6,123.1 203.3,121.7 202.2,120.1 201.2,118.4 200.4,116.5 199.8,114.4 199.4,112.1 199.2,109.6 
	199.3,106.9 199.7,104.1 199.9,102.6 200.3,101.3 200.6,99.9 200.9,98.6 201.3,97.4 201.8,96.2 202.2,95.1 202.7,94 203.2,92.9 
	203.7,91.9 204.3,91 204.9,90.1 205.6,89.2 206.3,88.4 206.9,87.6 207.7,86.9 208.5,86.2 209.3,85.6 210.1,85 211,84.4 211.9,83.9 
	212.8,83.4 213.8,83 214.8,82.7 215.9,82.3 216.9,82 218,81.8 219.2,81.6 220.4,81.4 221.6,81.3 222.9,81.2 224.2,81.2 225.3,81.2 
	226.4,81.3 227.4,81.4 228.4,81.5 229.4,81.6 230.3,81.9 231.2,82 232.1,82.2 232.8,82.4 233.5,82.7 234.2,82.9 234.7,83.1 
	235.2,83.2 235.6,83.4 235.9,83.5 236.2,83.6 "/>
<path class="st2" d="M319.4,128h-9.6l0.7-3.8v-0.3l-0.5,0.7l-0.6,0.6l-0.6,0.5l-0.6,0.5l-0.6,0.5L307,127l-0.6,0.3l-0.7,0.3
	l-0.7,0.2l-0.7,0.2l-0.7,0.2l-0.7,0.1l-0.7,0.1l-0.6,0.1H301h-0.7l-1.8-0.1l-1.7-0.4l-1.5-0.6l-1.4-0.8l-1.3-1l-1.1-1.2l-1-1.3
	l-0.8-1.5l-0.7-1.5l-0.5-1.6l-0.4-1.7l-0.3-1.8l-0.1-1.8v-1.8l0.2-1.8l0.3-1.8l0.5-2l0.6-1.9l0.7-1.8l0.9-1.7l0.9-1.6l1-1.4l1.1-1.2
	l1.1-1.1l1.2-1l1.3-0.9l1.3-0.8l1.3-0.6l1.4-0.5l1.4-0.3l1.4-0.2l1.4-0.1h1l1,0.1l0.9,0.2l0.8,0.2l0.8,0.3l0.7,0.3l0.7,0.4l0.6,0.4
	l0.5,0.4l0.5,0.4l0.5,0.4l0.4,0.4l0.3,0.4l0.3,0.4l0.3,0.4l0.2,0.4l0,0l2.4-13.6h9.4L319.4,128z M303.8,119.7l1-0.1l0.9-0.2l0.8-0.2
	l0.8-0.4l0.7-0.4l0.7-0.5l0.6-0.6l0.6-0.6l0.5-0.7l0.5-0.8l0.5-0.8l0.4-0.8l0.3-0.9l0.3-0.9l0.2-0.9l0.2-0.9l0.2-1l0.1-1v-1v-1
	l-0.1-0.9l-0.1-0.9l-0.2-0.8l-0.3-0.8l-0.4-0.7l-0.4-0.7l-0.5-0.6l-0.5-0.5l-0.6-0.4l-0.6-0.3l-0.6-0.2l-0.7-0.1l-0.9,0.1l-0.9,0.1
	l-0.8,0.3l-0.8,0.4l-0.7,0.4l-0.7,0.6l-0.6,0.6l-0.6,0.7l-0.5,0.8L301,104l-0.5,0.8l-0.4,0.9l-0.3,0.9l-0.3,0.9l-0.3,1l-0.2,1
	l-0.2,1.5l0.1,1.7l0.2,1.7l0.5,1.6l0.7,1.4l0.9,1.1l1.1,0.8L303.8,119.7L303.8,119.7z"/>
<path class="st2" d="M91.8,120.4l-1.4,7.6h-8.7l0.2-1.4l0.2-1.3l0.1-1l0.1-0.5l-0.5,0.5l-0.6,0.5l-0.7,0.5L80,126l-0.8,0.5l-0.9,0.4
	l-0.9,0.4l-0.9,0.3l-1,0.3l-1,0.2l-1,0.2l-1,0.1l-1,0.1h-1l-1-0.1l-0.9-0.1l-1.2-0.3l-1.1-0.4l-1-0.5l-0.9-0.5l-0.8-0.5l-0.7-0.6
	l-0.6-0.7l-0.5-0.7l-0.4-0.7l-0.3-0.8l-0.3-0.8l-0.2-0.8l-0.1-0.8l-0.1-0.8l-0.1-0.8v-0.8l0.1-1.4l0.2-1.3l0.3-1.2l0.4-1.2L62,112
	l0.6-1l0.7-1l0.8-0.9l0.9-0.8l1-0.7l1-0.7l1-0.5l1.1-0.5l1.1-0.4l1.2-0.3l1.2-0.2h0.1h0.2h0.2h0.4l0.4-0.1h0.5l0.5-0.1l0.6-0.1
	l0.6-0.1l0.6-0.1h0.6l0.6-0.1h0.6H79h0.5h1.2h0.8h0.8H83h0.6H84h0.3h0.1l0.1-0.2l0.2-0.6l0.2-0.7l0.1-0.7l-0.1-0.8l-0.3-0.7
	l-0.4-0.6l-0.6-0.5l-0.7-0.4L82.2,99l-0.8-0.2l-0.9-0.1h-1h-1h-1.1h-1.1l-1.1,0.1l-1.1,0.1L73,99l-1.1,0.1l-1,0.1l-1,0.2L69,99.6
	l-0.8,0.2l-0.8,0.2l-0.6,0.2l-0.5,0.2l-0.4,0.2l2.4-8.3l0.8-0.3l0.8-0.3l0.8-0.2l0.8-0.2l0.8-0.2l0.9-0.1l0.9-0.1l0.9-0.1l1-0.1h1h1
	h3.3h1.2h1.2l1,0.1l1,0.2l1.1,0.2l1.1,0.3l1.1,0.4l1,0.5l1,0.6l1,0.7l0.9,0.8l0.8,0.8l0.7,0.9l0.5,1l0.3,1.1l0.2,1.2v1.3l-0.2,1.4
	L91.8,120.4L91.8,120.4z M83.5,111.4v-0.2l-0.1-0.2l-0.2-0.1l-0.3-0.1l-0.4-0.1h-0.4h-1h-0.6l-0.6,0.1l-0.6,0.1l-0.6,0.1l-0.5,0.1
	l-0.5,0.1l-0.4,0.1l-0.4,0.1l-0.2,0.1l-0.3,0.1l-0.4,0.1l-0.4,0.2l-0.4,0.2l-0.4,0.2l-0.5,0.2l-0.4,0.3l-0.5,0.3l-0.4,0.3l-0.4,0.4
	l-0.4,0.4l-0.3,0.5l-0.2,0.5l-0.2,0.5l-0.1,0.5v1.2l0.2,0.9L72,119l0.4,0.5l0.5,0.4l0.6,0.2l0.6,0.1h0.6h1l0.9-0.1l0.9-0.1l0.8-0.2
	l0.7-0.2l0.7-0.3l0.6-0.3l0.5-0.4l0.4-0.3l0.4-0.4l0.4-0.4l0.3-0.4l0.2-0.4l0.2-0.4l0.2-0.4l0.1-0.4l0.3-1l0.2-1.1l0.2-1.1
	L83.5,111.4L83.5,111.4z"/>
<polygon class="st2" points="19.1,128.1 9.7,128.1 17.6,82.7 33.9,82.7 35.5,109.6 46.8,82.7 63.8,82.7 55.8,128.1 46.4,128.1 
	52.3,94.2 52,94.2 37.9,128.1 27.3,128.1 27.2,126.6 27,122.9 26.7,117.5 26.3,111.4 26,105.2 25.7,99.8 25.5,95.8 25.4,94.2 
	25.3,94.2 25.1,94.2 24.9,94.2 24.9,94.2 "/>
<path class="st2" d="M263.1,120.4l-1.4,7.6H253l0.1-1.4v-1.2v-0.9l0.1-0.4l-0.5,0.5l-0.5,0.5l-0.6,0.5l-0.7,0.5l-0.7,0.5l-0.8,0.4
	l-0.9,0.4l-0.9,0.4l-0.9,0.3l-1,0.3l-1,0.2l-1,0.1l-1,0.1h-1l-0.9-0.1l-0.9-0.1l-1.2-0.3l-1.1-0.4l-1-0.5l-0.9-0.5l-0.8-0.5
	l-0.7-0.6l-0.5-0.7l-0.5-0.7l-0.4-0.7l-0.3-0.8l-0.3-0.8l-0.2-0.8l-0.1-0.8l-0.1-0.8l-0.1-0.8v-0.8l0.1-1.4l0.2-1.3l0.3-1.2l0.5-1.2
	l0.5-1.1l0.7-1l0.7-1l0.8-0.9l0.9-0.8l0.9-0.7l1-0.7l1.1-0.5l1.1-0.5l1.1-0.4l1.1-0.3l1.2-0.2h0.1h0.2h0.2h0.4l0.5-0.1h0.5l0.5-0.1
	l0.5-0.1l0.6-0.1l0.6-0.1h0.6l0.6-0.1h0.5h0.5h0.5h1.2h0.8h0.8h0.8h0.7h0.5h0.3h0.4l0.1-0.2l0.1-0.6l0.1-0.7l0.1-0.7l-0.1-0.8
	l-0.3-0.7l-0.5-0.6l-0.5-0.5l-0.6-0.4l-0.7-0.3l-0.8-0.2l-0.8-0.1h-1h-1H249h-1.1l-1.1,0.1l-1.1,0.1l-1.1,0.1l-1.1,0.1l-1,0.1
	l-1,0.2l-0.9,0.2l-0.8,0.2l-0.8,0.2l-0.6,0.2l-0.5,0.2l-0.4,0.2l2.4-8.3l0.8-0.3l0.8-0.3l0.8-0.2l0.8-0.2l0.9-0.2l0.9-0.1l0.9-0.1
	l0.9-0.1l1-0.1h1h1h3.2h1.2h1.2l1,0.1l1,0.2l1.1,0.2l1.1,0.3l1.1,0.4l1.1,0.5l1,0.6l1,0.7l0.9,0.8l0.8,0.8l0.7,0.9l0.5,1l0.4,1.1
	l0.2,1.2v1.3L267,102L263.1,120.4L263.1,120.4z M254.8,111.4l-0.1-0.2l-0.1-0.2l-0.2-0.1l-0.3-0.1h-0.4h-0.5h-0.5h-0.5l-0.5,0.1
	l-0.5,0.1l-0.5,0.1l-0.5,0.1l-0.5,0.1l-0.5,0.1l-0.5,0.1l-0.3,0.1h-0.2l-0.3,0.1l-0.4,0.1l-0.4,0.1l-0.5,0.2l-0.4,0.2l-0.5,0.2
	l-0.5,0.3l-0.5,0.3l-0.5,0.4l-0.4,0.4l-0.4,0.5l-0.3,0.5l-0.2,0.5l-0.2,0.5l-0.1,0.6v1.2l0.2,0.9l0.3,0.7l0.4,0.5l0.5,0.4l0.6,0.2
	l0.6,0.1h0.6h1l1-0.1l0.9-0.2l0.8-0.2l0.8-0.3l0.7-0.3l0.6-0.4l0.5-0.4l0.5-0.4l0.4-0.5l0.4-0.4l0.3-0.5l0.2-0.4l0.1-0.4l0.1-0.4
	l0.1-0.4l0.1-1l0.2-1l0.1-1L254.8,111.4L254.8,111.4z"/>
<polygon class="st2" points="265.7,128.1 275.5,128.1 275.5,128.1 278.9,108.4 279.1,107.6 279.3,106.9 279.5,106.1 279.8,105.4 
	280.1,104.6 280.5,103.9 281,103.2 281.5,102.5 282.1,101.9 282.8,101.4 283.6,100.9 284.5,100.5 285.5,100.1 286.6,99.8 
	287.8,99.6 289.2,99.6 289.7,99.6 290,99.6 290,99.6 290,99.6 291.6,90.7 290.6,90.8 289.7,90.9 288.8,91 288,91.3 287.3,91.6 
	286.5,91.9 285.8,92.3 285.2,92.7 284.6,93.2 284,93.7 283.4,94.2 282.9,94.8 282.4,95.4 281.8,96 281.3,96.6 280.8,97.3 
	281.9,91.1 272.2,91.1 265.7,128.1 "/>
<polygon class="st2" points="174.3,128.1 184,128.1 184.2,128.1 187.5,108.4 187.6,107.6 187.8,106.9 188,106.2 188.2,105.5 
	188.5,104.8 188.9,104.2 189.3,103.5 189.8,103 190.3,102.4 190.9,101.9 191.7,101.5 192.5,101.1 193.5,100.8 194.6,100.5 
	195.7,100.4 197.1,100.3 197.2,100.3 197.3,100.3 197.5,100.3 197.7,100.3 197.8,100.4 198,100.4 198.1,100.4 198.1,100.4 
	198.1,100.3 198.3,99.9 198.4,99.3 198.6,98.5 198.8,97.6 199,96.6 199.4,95.7 199.7,94.7 199.9,94 200.3,93.4 200.6,92.7 201,92.1 
	201.3,91.6 201.5,91.2 201.7,91 201.8,90.9 201.7,90.9 201.6,90.8 201.4,90.8 201.2,90.8 200.9,90.8 200.7,90.7 200.4,90.7 
	200.2,90.7 199.1,90.8 198.1,90.9 197.3,91 196.4,91.2 195.6,91.5 194.9,91.9 194.2,92.2 193.6,92.6 193,93.1 192.5,93.6 192,94.1 
	191.4,94.7 190.9,95.3 190.4,95.9 189.9,96.6 189.4,97.3 190.6,91.1 180.8,91.1 174.3,128.1 "/>
</svg>
