<svg xmlns="http://www.w3.org/2000/svg" viewBox="0 0 77.69 65.25"><defs><style>.cls-1{fill:#98cc78;}.cls-2{fill:#a6adb7;}</style></defs><title>Ресурс 1</title><g id="Слой_2" data-name="Слой 2"><g id="Layer_3" data-name="Layer 3"><path class="cls-1" d="M33.59,51.84h-.06a3,3,0,0,1-2.31-1.15l-15-19.31a3,3,0,0,1,4.74-3.69L33.68,44.07,58.57,14.43a3,3,0,0,1,4.6,3.85L35.89,50.77A3,3,0,0,1,33.59,51.84Z"/><path class="cls-2" d="M72.58,65.25H5.11A5.12,5.12,0,0,1,0,60.13v-55A5.11,5.11,0,0,1,5.11,0H72.58a5.11,5.11,0,0,1,5.11,5.11v55A5.12,5.12,0,0,1,72.58,65.25ZM5.11,2.75A2.36,2.36,0,0,0,2.75,5.11v55A2.37,2.37,0,0,0,5.11,62.5H72.58a2.37,2.37,0,0,0,2.36-2.37v-55a2.36,2.36,0,0,0-2.36-2.36Z"/></g></g></svg>