<svg xmlns="http://www.w3.org/2000/svg" viewBox="11726.001 -22418 43.056 50">
  <defs>
    <style>
      .book-cls-1 {
        fill: #53c419;
        fill-rule: evenodd;
      }
    </style>
  </defs>
  <path id="address-book" class="book-cls-1" d="M30.272,31.16A2.539,2.539,0,0,0,28.4,29.12L24.056,28V26.473a6.015,6.015,0,0,0,2.59-4.929V18.952a5.133,5.133,0,0,0-5.126-5.13H19.793a5.133,5.133,0,0,0-5.126,5.13v2.592a6.015,6.015,0,0,0,2.59,4.929V28L12.91,29.119a2.539,2.539,0,0,0-1.87,2.041L10.7,33.223a2.537,2.537,0,0,0,2.5,2.955H28.114a2.537,2.537,0,0,0,2.5-2.955Zm-1.458,3.073a.9.9,0,0,1-.7.325H13.2a.918.918,0,0,1-.9-1.069l.343-2.062a.918.918,0,0,1,.676-.738l4.955-1.275a.81.81,0,0,0,.608-.784v-2.6a.81.81,0,0,0-.4-.7,4.39,4.39,0,0,1-2.186-3.783V18.952a3.512,3.512,0,0,1,3.507-3.51H21.52a3.512,3.512,0,0,1,3.507,3.51v2.592a4.39,4.39,0,0,1-2.186,3.784.81.81,0,0,0-.4.7v2.6a.81.81,0,0,0,.608.784L28,30.688a.918.918,0,0,1,.676.738l.343,2.062a.9.9,0,0,1-.2.744ZM40.512,4.32h-.917V3.4A3.4,3.4,0,0,0,36.2,0H5.117a3.4,3.4,0,0,0-3.4,3.4v3.51H.8a.81.81,0,0,0,0,1.62h.917v2.7H.8a.81.81,0,1,0,0,1.62h.917v2.7H.8a.81.81,0,1,0,0,1.62h.917v2.7H.8a.81.81,0,1,0,0,1.62h.917v2.7H.8a.81.81,0,1,0,0,1.62h.917v2.7H.8a.81.81,0,1,0,0,1.62h.917v2.7H.8a.81.81,0,0,0,0,1.62h.917v2.7H.8a.81.81,0,1,0,0,1.62h.917v2.7H.8a.81.81,0,1,0,0,1.62h.917V46.6a3.4,3.4,0,0,0,3.4,3.4H36.2a3.4,3.4,0,0,0,3.4-3.4V31.857h.917a2.54,2.54,0,0,0,2.536-2.538V6.857A2.54,2.54,0,0,0,40.512,4.32Zm-.917,11.987h1.834V19.87H39.594Zm0-1.62V11.123h1.834v3.564Zm0,6.8h1.834v3.564H39.594ZM40.512,5.94a.919.919,0,0,1,.917.918V9.5H39.594V5.94ZM37.976,46.6A1.783,1.783,0,0,1,36.2,48.38H5.117A1.783,1.783,0,0,1,3.337,46.6v-3.51h.917a.81.81,0,1,0,0-1.62H3.337v-2.7h.917a.81.81,0,1,0,0-1.62H3.337v-2.7h.917a.81.81,0,1,0,0-1.62H3.337v-2.7h.917a.81.81,0,1,0,0-1.62H3.337v-2.7h.917a.81.81,0,0,0,0-1.62H3.337v-2.7h.917a.81.81,0,1,0,0-1.62H3.337v-2.7h.917a.81.81,0,1,0,0-1.62H3.337v-2.7h.917a.81.81,0,1,0,0-1.62H3.337v-2.7h.917a.81.81,0,1,0,0-1.62H3.337V3.4A1.783,1.783,0,0,1,5.117,1.62H36.2A1.783,1.783,0,0,1,37.976,3.4Zm2.536-16.361h-.917V26.674h1.834V29.32a.919.919,0,0,1-.917.918Z" transform="translate(11726.01 -22418)"/>
</svg>
