<svg xmlns="http://www.w3.org/2000/svg" viewBox="11326 -22078 43.056 50">
  <defs>
    <style>
      .cup-cls-1 {
        fill: #53c419;
        fill-rule: evenodd;
      }
    </style>
  </defs>
  <path id="coffee-cup" class="cup-cls-1" d="M36.2,25.059a6.838,6.838,0,0,0-1.78.235V25a2.54,2.54,0,0,0-2.536-2.538H2.536A2.54,2.54,0,0,0,0,25V37.1a11.636,11.636,0,0,0,4.316,9.043v1.324A2.54,2.54,0,0,0,6.852,50H27.571a2.54,2.54,0,0,0,2.536-2.538V46.144a11.47,11.47,0,0,0,3.906-6,6.855,6.855,0,0,0,9.043-6.5V31.917A6.863,6.863,0,0,0,36.2,25.059Zm-1.78,6.858a1.781,1.781,0,1,1,3.561,0v1.728a1.781,1.781,0,1,1-3.561,0ZM27.571,48.385H6.852a.919.919,0,0,1-.917-.918v-.918H28.488v.918A.919.919,0,0,1,27.571,48.385ZM32.8,37.1a9.977,9.977,0,0,1-3.775,7.829H5.394A9.977,9.977,0,0,1,1.619,37.1V25a.919.919,0,0,1,.917-.918H31.888A.919.919,0,0,1,32.8,25Zm8.633-3.456A5.242,5.242,0,0,1,36.2,38.882a5.186,5.186,0,0,1-1.872-.347,11.466,11.466,0,0,0,.092-1.435v-.559a3.4,3.4,0,0,0,5.18-2.9V31.917a3.4,3.4,0,0,0-5.18-2.9v-2.03a5.234,5.234,0,0,1,7.014,4.926v1.728ZM16.665,16.058a4.813,4.813,0,0,0-1.989,3.764.809.809,0,0,0,1.619,0,3.256,3.256,0,0,1,1.464-2.569,4.813,4.813,0,0,0,1.989-3.764,4.818,4.818,0,0,0-1.989-3.766,3.259,3.259,0,0,1-1.464-2.571A3.26,3.26,0,0,1,17.758,4.58,4.816,4.816,0,0,0,19.747.814a.809.809,0,1,0-1.619,0,3.259,3.259,0,0,1-1.464,2.572,4.816,4.816,0,0,0-1.989,3.765,4.816,4.816,0,0,0,1.989,3.765,3.26,3.26,0,0,1,1.464,2.572A3.256,3.256,0,0,1,16.665,16.058Zm5.18,0a4.812,4.812,0,0,0-1.989,3.764.809.809,0,1,0,1.619,0,3.256,3.256,0,0,1,1.464-2.569,4.812,4.812,0,0,0,1.989-3.764,4.819,4.819,0,0,0-1.989-3.766,3.259,3.259,0,0,1-1.464-2.571.809.809,0,0,0-1.619,0,4.816,4.816,0,0,0,1.989,3.765,3.26,3.26,0,0,1,1.464,2.572,3.257,3.257,0,0,1-1.464,2.569Zm-10.36,0A4.812,4.812,0,0,0,9.5,19.821a.809.809,0,0,0,1.619,0,3.256,3.256,0,0,1,1.464-2.569,4.812,4.812,0,0,0,1.989-3.764,4.819,4.819,0,0,0-1.989-3.766,3.259,3.259,0,0,1-1.464-2.571.809.809,0,0,0-1.619,0,4.816,4.816,0,0,0,1.989,3.765,3.26,3.26,0,0,1,1.464,2.572,3.255,3.255,0,0,1-1.464,2.569Z" transform="translate(11326 -22078.006)"/>
</svg>
