<svg xmlns="http://www.w3.org/2000/svg" viewBox="11326 -22418 41.5 50">
  <defs>
    <style>
      .woman-cls-1 {
        fill: #53c419;
        fill-rule: evenodd;
      }

      .woman-cls-2, .woman-cls-3, .woman-cls-5 {
        fill: none;
      }

      .woman-cls-2, .woman-cls-3 {
        stroke: #53c419;
      }

      .woman-cls-3 {
        stroke-width: 2px;
      }

      .woman-cls-4 {
        stroke: none;
      }
    </style>
  </defs>
  <g id="Group_3702" data-name="Group 3702" transform="translate(9854 -23168)">
    <path id="woman" class="woman-cls-1" d="M26.63,27.469l-2.958-.74c.356-.143.738-.3,1.121-.472,2.324-1.033,3.315-1.838,3.315-2.693,0-8.7-1.144-14.761-3.5-18.542C22.506,1.643,19.374,0,15.037,0S7.569,1.643,5.465,5.023c-2.354,3.781-3.5,9.846-3.5,18.542,0,.855.991,1.66,3.315,2.693.384.171.765.329,1.122.472l-2.958.74A4.542,4.542,0,0,0,0,31.883v4.141A1.929,1.929,0,0,0,1.926,37.95H28.149a1.928,1.928,0,0,0,1.926-1.926V31.883a4.542,4.542,0,0,0-3.445-4.413ZM9.763,27.157a2.578,2.578,0,0,0,1.955-2.5v-.575a7.641,7.641,0,0,0,6.638,0v.575a2.578,2.578,0,0,0,1.955,2.505l.773.193A15.476,15.476,0,0,1,15.037,32.1,15.477,15.477,0,0,1,8.99,27.35Zm5.274-3.551c-4.36,0-7.908-4.431-7.908-9.877v-.391C10.546,10.221,17.205,9.8,19.821,9.758A16.594,16.594,0,0,0,22.8,15.519a10.66,10.66,0,0,1-2.646,5.723A7.036,7.036,0,0,1,15.037,23.606ZM3.2,23.541C3.2,15.095,4.282,9.25,6.508,5.673c1.888-3.032,4.6-4.444,8.529-4.444s6.642,1.412,8.529,4.444c2.227,3.576,3.31,9.422,3.312,17.868-.037.081-.361.623-2.748,1.665-1.091.476-2.162.858-2.565,1l-.956-.239a1.35,1.35,0,0,1-1.024-1.312v-1.29a9.362,9.362,0,0,0,1.471-1.279,11.956,11.956,0,0,0,3-6.677.614.614,0,0,0-.147-.48,15.463,15.463,0,0,1-3.04-5.95.615.615,0,0,0-.592-.451,34.4,34.4,0,0,0-6.957.705,14.62,14.62,0,0,0-7.24,3.4.615.615,0,0,0-.185.44v.656a11.71,11.71,0,0,0,4.589,9.63v1.293a1.351,1.351,0,0,1-1.024,1.312l-.956.239c-.4-.139-1.468-.519-2.557-.994C3.557,24.165,3.233,23.621,3.2,23.541Zm25.65,12.483a.7.7,0,0,1-.7.7H24.83V33.695a.615.615,0,0,0-1.229,0V36.72H6.474V33.695a.615.615,0,0,0-1.229,0V36.72H1.926a.7.7,0,0,1-.7-.7V31.883a3.315,3.315,0,0,1,2.514-3.22l3.937-.984a16.218,16.218,0,0,0,7.167,5.652.615.615,0,0,0,.38,0,16.218,16.218,0,0,0,7.167-5.652l3.937.984a3.315,3.315,0,0,1,2.514,3.22Z" transform="translate(1472 762.05)"/>
    <g id="Rectangle_3566" data-name="Rectangle 3566" class="woman-cls-2" transform="translate(1498.5 766.5)">
      <rect class="woman-cls-4" width="2.5" height="2.5" rx="1.25"/>
      <rect class="woman-cls-5" x="0.5" y="0.5" width="1.5" height="1.5" rx="0.75"/>
    </g>
    <g id="Rectangle_3567" data-name="Rectangle 3567" class="woman-cls-3" transform="translate(1501 759.5)">
      <rect class="woman-cls-4" width="5" height="5" rx="2.5"/>
      <rect class="woman-cls-5" x="1" y="1" width="3" height="3" rx="1.5"/>
    </g>
    <g id="Rectangle_3568" data-name="Rectangle 3568" class="woman-cls-3" transform="translate(1506 750)">
      <rect class="woman-cls-4" width="7.5" height="7.5" rx="3.75"/>
      <rect class="woman-cls-5" x="1" y="1" width="5.5" height="5.5" rx="2.75"/>
    </g>
  </g>
</svg>
