<svg xmlns="http://www.w3.org/2000/svg" xmlns:xlink="http://www.w3.org/1999/xlink" viewBox="-14855.941 -22170.514 154.522 102.881">
  <defs>
    <style>
      .cls-1 {
        fill: url(#linear-gradient);
      }
    </style>
    <linearGradient id="linear-gradient" x1="0.5" x2="0.5" y2="1" gradientUnits="objectBoundingBox">
      <stop offset="0" stop-color="#d0ffae" stop-opacity="0.4"/>
      <stop offset="1" stop-color="#d0ffae" stop-opacity="0"/>
    </linearGradient>
  </defs>
  <path id="Path_898" data-name="Path 898" class="cls-1" d="M74.922-49.971q0,26.182-8.579,38.76T39.922,1.367q-17.295,0-26.079-12.988T5.059-49.971q0-26.455,8.545-39t26.318-12.544q17.295,0,26.147,13.125T74.922-49.971Zm-48.877,0q0,18.389,3.179,26.353t10.7,7.964q7.383,0,10.664-8.066t3.281-26.25q0-18.389-3.315-26.421t-10.63-8.032q-7.451,0-10.664,8.032T26.045-49.971ZM159.581,0H89.718V-14.7l25.088-25.361q11.143-11.416,14.561-15.825a34.8,34.8,0,0,0,4.922-8.169,20.8,20.8,0,0,0,1.5-7.793q0-6.016-3.315-8.955a12.856,12.856,0,0,0-8.853-2.939,25.456,25.456,0,0,0-11.279,2.666,58.209,58.209,0,0,0-11.416,7.588L89.444-87.09a74.922,74.922,0,0,1,12.236-8.887,44.917,44.917,0,0,1,10.6-4,54.291,54.291,0,0,1,12.852-1.4,38.053,38.053,0,0,1,16.543,3.418,26.392,26.392,0,0,1,11.143,9.57,25.423,25.423,0,0,1,3.965,14.082,34.468,34.468,0,0,1-2.427,12.954,49.737,49.737,0,0,1-7.52,12.407q-5.093,6.357-17.944,18.115l-12.852,12.1v.957h43.545Z" transform="translate(-14861 -22069)"/>
</svg>
