<svg xmlns="http://www.w3.org/2000/svg" xmlns:xlink="http://www.w3.org/1999/xlink" viewBox="-15552.941 -21720.514 153.565 102.881">
  <defs>
    <style>
      .cls-1 {
        fill: url(#linear-gradient);
      }
    </style>
    <linearGradient id="linear-gradient" x1="0.5" x2="0.5" y2="1" gradientUnits="objectBoundingBox">
      <stop offset="0" stop-color="#d0ffae" stop-opacity="0.4"/>
      <stop offset="1" stop-color="#d0ffae" stop-opacity="0"/>
    </linearGradient>
  </defs>
  <path id="Path_897" data-name="Path 897" class="cls-1" d="M74.922-49.971q0,26.182-8.579,38.76T39.922,1.367q-17.295,0-26.079-12.988T5.059-49.971q0-26.455,8.545-39t26.318-12.544q17.295,0,26.147,13.125T74.922-49.971Zm-48.877,0q0,18.389,3.179,26.353t10.7,7.964q7.383,0,10.664-8.066t3.281-26.25q0-18.389-3.315-26.421t-10.63-8.032q-7.451,0-10.664,8.032T26.045-49.971ZM155.684-77.588a23.518,23.518,0,0,1-5.674,15.928q-5.674,6.563-15.928,9.023v.41q12.1,1.5,18.32,7.349t6.221,15.757q0,14.424-10.459,22.456T118.292,1.367q-16.27,0-28.848-5.4V-22.012a65.2,65.2,0,0,0,12.783,4.785,53.792,53.792,0,0,0,13.809,1.846q10.459,0,15.449-3.555t4.99-11.416q0-7.041-5.742-9.98t-18.32-2.939h-7.588v-16.2h7.725q11.621,0,16.987-3.042T134.9-72.939q0-11.348-14.219-11.348a32.541,32.541,0,0,0-10.015,1.641,48.921,48.921,0,0,0-11.313,5.674L89.581-91.533q13.672-9.844,32.607-9.844,15.518,0,24.507,6.289T155.684-77.588Z" transform="translate(-15558 -21619)"/>
</svg>
