<svg xmlns="http://www.w3.org/2000/svg" viewBox="-23419 -23778 150 29.869">
  <defs>
    <style>
      .cls-1 {
        fill: #53c419;
      }

      .cls-2 {
        fill: #555;
      }
    </style>
  </defs>
  <g id="Group_538" data-name="Group 538" transform="translate(-27088.529 -2198.926)">
    <g id="Group_536" data-name="Group 536" transform="translate(3669.53 -21577.934)">
      <path id="Rectangle_741" class="cls-1" d="M28.993,39.5h3.6a1.481,1.481,0,0,1,1.493,1.493v4.392A1.481,1.481,0,0,1,32.6,46.879h-3.6A1.481,1.481,0,0,1,27.5,45.386V40.993A1.539,1.539,0,0,1,28.993,39.5Z" transform="translate(-27.5 -18.68)"/>
      <path id="Rectangle_742" class="cls-1" d="M52.093,15.8h3.6a1.539,1.539,0,0,1,1.493,1.493V42.33A1.43,1.43,0,0,1,55.7,43.824h-3.6A1.539,1.539,0,0,1,50.6,42.33V17.293A1.606,1.606,0,0,1,52.093,15.8Z" transform="translate(-30.307 -15.8)"/>
      <path id="Rectangle_743" class="cls-1" d="M40.593,28.3h3.6a1.668,1.668,0,0,1,1.493,1.757v13.7A1.609,1.609,0,0,1,44.2,45.518h-3.6A1.668,1.668,0,0,1,39.1,43.761v-13.7A1.608,1.608,0,0,1,40.593,28.3Z" transform="translate(-28.909 -17.319)"/>
      <path id="Path_900" data-name="Path 900" class="cls-2" d="M72.264,23.7c5.886,0,8.522,2.987,8.522,8.17V43.378c0,1.142-.351,1.493-1.406,1.493H76.3c-1.142,0-1.493-.351-1.493-1.493V32.134c0-2.021-1.142-2.987-3.338-2.987a8.54,8.54,0,0,0-2.723.351.307.307,0,0,0-.088.176V43.466c0,1.142-.351,1.493-1.493,1.493H64.093c-1.142,0-1.493-.351-1.493-1.493V27.478c0-1.318.264-1.757,1.581-2.284A20.164,20.164,0,0,1,72.264,23.7Z" transform="translate(-31.764 -16.76)"/>
    </g>
  </g>
</svg>
